<?xml version="1.0" standalone="no"?>
<!DOCTYPE svg PUBLIC "-//W3C//DTD SVG 1.1//EN" "http://www.w3.org/Graphics/SVG/1.1/DTD/svg11.dtd" >
<!--
2013-9-30: Created.
-->
<svg>
<metadata>
Created by iconfont
</metadata>
<defs>

<font id="iconfont" horiz-adv-x="1024" >
  <font-face
    font-family="iconfont"
    font-weight="500"
    font-stretch="normal"
    units-per-em="1024"
    ascent="896"
    descent="-128"
  />
    <missing-glyph />
    
    <glyph glyph-name="x" unicode="x" horiz-adv-x="1001"
d="M281 543q-27 -1 -53 -1h-83q-18 0 -36.5 -6t-32.5 -18.5t-23 -32t-9 -45.5v-76h912v41q0 16 -0.5 30t-0.5 18q0 13 -5 29t-17 29.5t-31.5 22.5t-49.5 9h-133v-97h-438v97zM955 310v-52q0 -23 0.5 -52t0.5 -58t-10.5 -47.5t-26 -30t-33 -16t-31.5 -4.5q-14 -1 -29.5 -0.5
t-29.5 0.5h-32l-45 128h-439l-44 -128h-29h-34q-20 0 -45 1q-25 0 -41 9.5t-25.5 23t-13.5 29.5t-4 30v167h911zM163 247q-12 0 -21 -8.5t-9 -21.5t9 -21.5t21 -8.5q13 0 22 8.5t9 21.5t-9 21.5t-22 8.5zM316 123q-8 -26 -14 -48q-5 -19 -10.5 -37t-7.5 -25t-3 -15t1 -14.5
t9.5 -10.5t21.5 -4h37h67h81h80h64h36q23 0 34 12t2 38q-5 13 -9.5 30.5t-9.5 34.5q-5 19 -11 39h-368zM336 498v228q0 11 2.5 23t10 21.5t20.5 15.5t34 6h188q31 0 51.5 -14.5t20.5 -52.5v-227h-327z" />
    

    
    <glyph glyph-name="accessalarms" unicode="&#58993;" d="M938.666667 652.8l-196.266667 166.4-55.466667-64 196.266667-166.4L938.666667 652.8zM337.066667 750.933333 281.6 814.933333 85.333333 652.8l55.466667-64L337.066667 750.933333zM533.333333 554.666667 469.333333 554.666667l0-256 200.533333-123.733333 34.133333 51.2-170.666667 102.4L533.333333 554.666667zM512 725.333333c-213.333333 0-384-170.666667-384-384 0-213.333333 170.666667-384 384-384s384 170.666667 384 384C896 554.666667 725.333333 725.333333 512 725.333333zM512 42.666667c-166.4 0-298.666667 132.266667-298.666667 298.666667 0 166.4 132.266667 298.666667 298.666667 298.666667 166.4 0 298.666667-132.266667 298.666667-298.666667C810.666667 174.933333 678.4 42.666667 512 42.666667z"  horiz-adv-x="1024" />

    
    <glyph glyph-name="accesstime" unicode="&#58994;" d="M512 810.666667C277.333333 810.666667 85.333333 618.666667 85.333333 384s192-426.666667 426.666667-426.666667c234.666667 0 426.666667 192 426.666667 426.666667S746.666667 810.666667 512 810.666667zM512 42.666667c-187.733333 0-341.333333 153.6-341.333333 341.333333s153.6 341.333333 341.333333 341.333333c187.733333 0 341.333333-153.6 341.333333-341.333333S699.733333 42.666667 512 42.666667zM533.333333 597.333333 469.333333 597.333333 469.333333 341.333333 691.2 204.8 725.333333 260.266667 533.333333 375.466667Z"  horiz-adv-x="1024" />

    
    <glyph glyph-name="accessibility" unicode="&#58995;" d="M512 810.666667c46.933333 0 85.333333-38.4 85.333333-85.333333s-38.4-85.333333-85.333333-85.333333-85.333333 38.4-85.333333 85.333333S465.066667 810.666667 512 810.666667zM896 512l-256 0 0-554.666667-85.333333 0 0 256-85.333333 0 0-256L384-42.666667 384 512 128 512 128 597.333333l768 0L896 512z"  horiz-adv-x="1024" />

    
    <glyph glyph-name="accountbox" unicode="&#58996;" d="M128 682.666667l0-597.333333c0-46.933333 38.4-85.333333 85.333333-85.333333l597.333333 0c46.933333 0 85.333333 38.4 85.333333 85.333333L896 682.666667c0 46.933333-38.4 85.333333-85.333333 85.333333L213.333333 768C166.4 768 128 729.6 128 682.666667zM640 512c0-72.533333-55.466667-128-128-128-72.533333 0-128 55.466667-128 128 0 72.533333 55.466667 128 128 128C584.533333 640 640 584.533333 640 512zM256 170.666667c0 85.333333 170.666667 132.266667 256 132.266667s256-46.933333 256-132.266667l0-42.666667L256 128 256 170.666667z"  horiz-adv-x="1024" />

    
    <glyph glyph-name="accountcircle" unicode="&#58997;" d="M512 810.666667C277.333333 810.666667 85.333333 618.666667 85.333333 384s192-426.666667 426.666667-426.666667c234.666667 0 426.666667 192 426.666667 426.666667S746.666667 810.666667 512 810.666667zM512 682.666667c72.533333 0 128-55.466667 128-128 0-72.533333-55.466667-128-128-128-72.533333 0-128 55.466667-128 128C384 627.2 439.466667 682.666667 512 682.666667zM512 76.8c-106.666667 0-200.533333 55.466667-256 136.533333 0 85.333333 170.666667 132.266667 256 132.266667 85.333333 0 256-46.933333 256-132.266667C712.533333 132.266667 618.666667 76.8 512 76.8z"  horiz-adv-x="1024" />

    
    <glyph glyph-name="adb" unicode="&#58998;" d="M213.333333 213.333333c0-166.4 132.266667-298.666667 298.666667-298.666667 166.4 0 298.666667 132.266667 298.666667 298.666667l0 170.666667L213.333333 384 213.333333 213.333333zM686.933333 708.266667l89.6 89.6-34.133333 34.133333-98.133333-98.133333C605.866667 755.2 558.933333 768 512 768c-46.933333 0-93.866667-12.8-132.266667-29.866667L281.6 836.266667 247.466667 797.866667l89.6-89.6C260.266667 657.066667 213.333333 567.466667 213.333333 469.333333l0-42.666667 597.333333 0 0 42.666667C810.666667 567.466667 763.733333 657.066667 686.933333 708.266667zM384 512C358.4 512 341.333333 529.066667 341.333333 554.666667s17.066667 42.666667 42.666667 42.666667c25.6 0 42.666667-17.066667 42.666667-42.666667S409.6 512 384 512zM640 512c-25.6 0-42.666667 17.066667-42.666667 42.666667s17.066667 42.666667 42.666667 42.666667c25.6 0 42.666667-17.066667 42.666667-42.666667S665.6 512 640 512z"  horiz-adv-x="1024" />

    
    <glyph glyph-name="addalarm" unicode="&#58999;" d="M337.066667 750.933333 281.6 814.933333 85.333333 652.8l55.466667-64L337.066667 750.933333zM938.666667 652.8l-196.266667 166.4-55.466667-64 196.266667-166.4L938.666667 652.8zM512 725.333333c-213.333333 0-384-170.666667-384-384 0-213.333333 170.666667-384 384-384s384 170.666667 384 384C896 554.666667 725.333333 725.333333 512 725.333333zM512 42.666667c-166.4 0-298.666667 132.266667-298.666667 298.666667 0 166.4 132.266667 298.666667 298.666667 298.666667 166.4 0 298.666667-132.266667 298.666667-298.666667C810.666667 174.933333 678.4 42.666667 512 42.666667zM554.666667 512l-85.333333 0 0-128L341.333333 384l0-85.333333 128 0 0-128 85.333333 0 0 128 128 0 0 85.333333-128 0L554.666667 512z"  horiz-adv-x="1024" />

    
    <glyph glyph-name="addbox" unicode="&#59000;" d="M810.666667 768 213.333333 768C166.4 768 128 729.6 128 682.666667l0-597.333333c0-46.933333 38.4-85.333333 85.333333-85.333333l597.333333 0c46.933333 0 85.333333 38.4 85.333333 85.333333L896 682.666667C896 729.6 857.6 768 810.666667 768zM725.333333 341.333333l-170.666667 0 0-170.666667-85.333333 0 0 170.666667L298.666667 341.333333l0 85.333333 170.666667 0L469.333333 597.333333l85.333333 0 0-170.666667 170.666667 0L725.333333 341.333333z"  horiz-adv-x="1024" />

    
    <glyph glyph-name="addcircleoutline" unicode="&#59001;" d="M554.666667 597.333333l-85.333333 0 0-170.666667L298.666667 426.666667l0-85.333333 170.666667 0 0-170.666667 85.333333 0 0 170.666667 170.666667 0 0 85.333333-170.666667 0L554.666667 597.333333zM512 810.666667C277.333333 810.666667 85.333333 618.666667 85.333333 384s192-426.666667 426.666667-426.666667c234.666667 0 426.666667 192 426.666667 426.666667S746.666667 810.666667 512 810.666667zM512 42.666667c-187.733333 0-341.333333 153.6-341.333333 341.333333s153.6 341.333333 341.333333 341.333333c187.733333 0 341.333333-153.6 341.333333-341.333333S699.733333 42.666667 512 42.666667z"  horiz-adv-x="1024" />

    
    <glyph glyph-name="addcircle" unicode="&#59002;" d="M512 810.666667C277.333333 810.666667 85.333333 618.666667 85.333333 384s192-426.666667 426.666667-426.666667c234.666667 0 426.666667 192 426.666667 426.666667S746.666667 810.666667 512 810.666667zM725.333333 341.333333l-170.666667 0 0-170.666667-85.333333 0 0 170.666667L298.666667 341.333333l0 85.333333 170.666667 0L469.333333 597.333333l85.333333 0 0-170.666667 170.666667 0L725.333333 341.333333z"  horiz-adv-x="1024" />

    
    <glyph glyph-name="add" unicode="&#59003;" d="M810.666667 341.333333l-256 0 0-256-85.333333 0 0 256L213.333333 341.333333l0 85.333333 256 0L469.333333 682.666667l85.333333 0 0-256 256 0L810.666667 341.333333z"  horiz-adv-x="1024" />

    
    <glyph glyph-name="airplanemodeoff" unicode="&#59004;" d="M554.666667 512 554.666667 746.666667C554.666667 780.8 524.8 810.666667 490.666667 810.666667 456.533333 810.666667 426.666667 780.8 426.666667 746.666667l0-157.866667 332.8-332.8 136.533333-42.666667 0 85.333333L554.666667 512zM128 669.866667l213.333333-213.333333L85.333333 298.666667l0-85.333333 341.333333 106.666667L426.666667 85.333333l-85.333333-64L341.333333-42.666667l149.333333 42.666667 149.333333-42.666667 0 64L554.666667 85.333333l0 157.866667 243.2-243.2 55.466667 55.466667L183.466667 725.333333 128 669.866667z"  horiz-adv-x="1024" />

    
    <glyph glyph-name="airplanemodeon" unicode="&#59005;" d="M435.2 512M896 213.333333l0 85.333333-341.333333 213.333333L554.666667 746.666667C554.666667 780.8 524.8 810.666667 490.666667 810.666667 456.533333 810.666667 426.666667 780.8 426.666667 746.666667L426.666667 512l-341.333333-213.333333 0-85.333333 341.333333 106.666667L426.666667 85.333333l-85.333333-64L341.333333-42.666667l149.333333 42.666667 149.333333-42.666667 0 64L554.666667 85.333333l0 234.666667L896 213.333333z"  horiz-adv-x="1024" />

    
    <glyph glyph-name="android" unicode="&#59006;" d="M256 128c0-25.6 17.066667-42.666667 42.666667-42.666667l42.666667 0 0-149.333333C341.333333-98.133333 371.2-128 405.333333-128c34.133333 0 64 29.866667 64 64L469.333333 85.333333l85.333333 0 0-149.333333c0-34.133333 29.866667-64 64-64 34.133333 0 64 29.866667 64 64L682.666667 85.333333l42.666667 0c25.6 0 42.666667 17.066667 42.666667 42.666667L768 554.666667 256 554.666667 256 128zM149.333333 554.666667C115.2 554.666667 85.333333 524.8 85.333333 490.666667l0-298.666667C85.333333 157.866667 115.2 128 149.333333 128 183.466667 128 213.333333 157.866667 213.333333 192l0 298.666667C213.333333 524.8 183.466667 554.666667 149.333333 554.666667zM874.666667 554.666667C840.533333 554.666667 810.666667 524.8 810.666667 490.666667l0-298.666667c0-34.133333 29.866667-64 64-64 34.133333 0 64 29.866667 64 64l0 298.666667C938.666667 524.8 908.8 554.666667 874.666667 554.666667zM661.333333 802.133333l55.466667 55.466667c8.533333 8.533333 8.533333 21.333333 0 29.866667-8.533333 8.533333-21.333333 8.533333-29.866667 0l-64-64C593.066667 844.8 554.666667 853.333333 512 853.333333c-42.666667 0-81.066667-8.533333-115.2-25.6L337.066667 891.733333C328.533333 896 311.466667 896 302.933333 891.733333 298.666667 883.2 298.666667 866.133333 302.933333 857.6l55.466667-55.466667C298.666667 755.2 256 682.666667 256 597.333333l512 0C768 682.666667 725.333333 759.466667 661.333333 802.133333zM426.666667 682.666667 384 682.666667 384 725.333333l42.666667 0L426.666667 682.666667zM640 682.666667l-42.666667 0L597.333333 725.333333l42.666667 0L640 682.666667z"  horiz-adv-x="1024" />

    
    <glyph glyph-name="apps" unicode="&#59007;" d="M170.666667 554.666667l170.666667 0L341.333333 725.333333 170.666667 725.333333 170.666667 554.666667zM426.666667 42.666667l170.666667 0 0 170.666667-170.666667 0L426.666667 42.666667zM170.666667 42.666667l170.666667 0 0 170.666667L170.666667 213.333333 170.666667 42.666667zM170.666667 298.666667l170.666667 0 0 170.666667L170.666667 469.333333 170.666667 298.666667zM426.666667 298.666667l170.666667 0 0 170.666667-170.666667 0L426.666667 298.666667zM682.666667 725.333333l0-170.666667 170.666667 0L853.333333 725.333333 682.666667 725.333333zM426.666667 554.666667l170.666667 0L597.333333 725.333333l-170.666667 0L426.666667 554.666667zM682.666667 298.666667l170.666667 0 0 170.666667-170.666667 0L682.666667 298.666667zM682.666667 42.666667l170.666667 0 0 170.666667-170.666667 0L682.666667 42.666667z"  horiz-adv-x="1024" />

    
    <glyph glyph-name="archive" unicode="&#59008;" d="M874.666667 674.133333l-59.733333 72.533333C806.4 759.466667 789.333333 768 768 768L256 768C234.666667 768 217.6 759.466667 204.8 746.666667L149.333333 674.133333C136.533333 657.066667 128 640 128 618.666667L128 85.333333c0-46.933333 38.4-85.333333 85.333333-85.333333l597.333333 0c46.933333 0 85.333333 38.4 85.333333 85.333333L896 618.666667C896 640 887.466667 657.066667 874.666667 674.133333zM512 149.333333 277.333333 384 426.666667 384l0 85.333333 170.666667 0 0-85.333333 149.333333 0L512 149.333333zM217.6 682.666667l34.133333 42.666667 512 0 38.4-42.666667L217.6 682.666667z"  horiz-adv-x="1024" />

    
    <glyph glyph-name="arrowback" unicode="&#59009;" d="M853.333333 426.666667 332.8 426.666667l238.933333 238.933333L512 725.333333l-341.333333-341.333333 341.333333-341.333333 59.733333 59.733333L332.8 341.333333 853.333333 341.333333 853.333333 426.666667z"  horiz-adv-x="1024" />

    
    <glyph glyph-name="arrowdropdowncircle" unicode="&#59010;" d="M512 810.666667C277.333333 810.666667 85.333333 618.666667 85.333333 384s192-426.666667 426.666667-426.666667c234.666667 0 426.666667 192 426.666667 426.666667S746.666667 810.666667 512 810.666667zM512 298.666667l-170.666667 170.666667 341.333333 0L512 298.666667z"  horiz-adv-x="1024" />

    
    <glyph glyph-name="arrowdropdown" unicode="&#59011;" d="M298.666667 469.333333 512 256 725.333333 469.333333Z"  horiz-adv-x="1024" />

    
    <glyph glyph-name="arrowdropup" unicode="&#59012;" d="M298.666667 298.666667 512 512 725.333333 298.666667Z"  horiz-adv-x="1024" />

    
    <glyph glyph-name="arrowforward" unicode="&#59013;" d="M512 725.333333 452.266667 665.6 691.2 426.666667 170.666667 426.666667 170.666667 341.333333 691.2 341.333333 452.266667 102.4 512 42.666667 853.333333 384Z"  horiz-adv-x="1024" />

    
    <glyph glyph-name="attachment" unicode="&#59014;" d="M320 128c-128 0-234.666667 106.666667-234.666667 234.666667S192 597.333333 320 597.333333L768 597.333333c93.866667 0 170.666667-76.8 170.666667-170.666667s-76.8-170.666667-170.666667-170.666667L405.333333 256C345.6 256 298.666667 302.933333 298.666667 362.666667S345.6 469.333333 405.333333 469.333333L725.333333 469.333333l0-64L405.333333 405.333333c-25.6 0-42.666667-17.066667-42.666667-42.666667s17.066667-42.666667 42.666667-42.666667L768 320c59.733333 0 106.666667 46.933333 106.666667 106.666667S827.733333 533.333333 768 533.333333L320 533.333333c-93.866667 0-170.666667-76.8-170.666667-170.666667s76.8-170.666667 170.666667-170.666667L725.333333 192 725.333333 128 320 128z"  horiz-adv-x="1024" />

    
    <glyph glyph-name="autofix" unicode="&#59015;" d="M320 657.066667 426.666667 597.333333 366.933333 704 426.666667 810.666667 320 750.933333 213.333333 810.666667 273.066667 704 213.333333 597.333333ZM832 238.933333 725.333333 298.666667 785.066667 192 725.333333 85.333333 832 145.066667 938.666667 85.333333 878.933333 192 938.666667 298.666667ZM938.666667 810.666667 832 750.933333 725.333333 810.666667 785.066667 704 725.333333 597.333333 832 657.066667 938.666667 597.333333 878.933333 704ZM614.4 584.533333c-17.066667 17.066667-42.666667 17.066667-59.733333 0L55.466667 85.333333c-17.066667-17.066667-17.066667-42.666667 0-59.733333l98.133333-98.133333c17.066667-17.066667 42.666667-17.066667 59.733333 0L712.533333 426.666667c17.066667 17.066667 17.066667 42.666667 0 59.733333L614.4 584.533333zM567.466667 349.866667l-89.6 89.6 102.4 102.4 89.6-89.6L567.466667 349.866667z"  horiz-adv-x="1024" />

    
    <glyph glyph-name="backspace" unicode="&#59016;" d="M938.666667 768 298.666667 768C268.8 768 247.466667 755.2 230.4 729.6L0 384l230.4-345.6C247.466667 17.066667 268.8 0 298.666667 0l640 0c46.933333 0 85.333333 38.4 85.333333 85.333333L1024 682.666667C1024 729.6 985.6 768 938.666667 768zM810.666667 230.4 750.933333 170.666667 597.333333 324.266667 443.733333 170.666667 384 230.4l153.6 153.6L384 537.6 443.733333 597.333333l153.6-153.6L750.933333 597.333333 810.666667 537.6 657.066667 384 810.666667 230.4z"  horiz-adv-x="1024" />

    
    <glyph glyph-name="backup" unicode="&#59017;" d="M827.733333 469.333333c-29.866667 145.066667-157.866667 256-315.733333 256C388.266667 725.333333 281.6 657.066667 230.4 554.666667 98.133333 537.6 0 430.933333 0 298.666667c0-140.8 115.2-256 256-256l554.666667 0c119.466667 0 213.333333 93.866667 213.333333 213.333333C1024 366.933333 934.4 460.8 827.733333 469.333333zM597.333333 341.333333l0-170.666667-170.666667 0 0 170.666667L298.666667 341.333333l213.333333 213.333333 213.333333-213.333333L597.333333 341.333333z"  horiz-adv-x="1024" />

    
    <glyph glyph-name="beenhere" unicode="&#59018;" d="M810.666667 853.333333 213.333333 853.333333C166.4 853.333333 128 814.933333 128 768l0-550.4c0-29.866667 12.8-55.466667 38.4-72.533333L512-85.333333l345.6 230.4c21.333333 17.066667 38.4 42.666667 38.4 72.533333L896 768C896 814.933333 857.6 853.333333 810.666667 853.333333zM426.666667 213.333333l-213.333333 213.333333 59.733333 59.733333 153.6-153.6 324.266667 324.266667L810.666667 597.333333 426.666667 213.333333z"  horiz-adv-x="1024" />

    
    <glyph glyph-name="block" unicode="&#59019;" d="M512 810.666667C277.333333 810.666667 85.333333 618.666667 85.333333 384s192-426.666667 426.666667-426.666667c234.666667 0 426.666667 192 426.666667 426.666667S746.666667 810.666667 512 810.666667zM170.666667 384c0 187.733333 153.6 341.333333 341.333333 341.333333 76.8 0 149.333333-25.6 209.066667-72.533333L243.2 174.933333C196.266667 234.666667 170.666667 307.2 170.666667 384zM512 42.666667c-76.8 0-149.333333 25.6-209.066667 72.533333L780.8 593.066667C827.733333 533.333333 853.333333 460.8 853.333333 384 853.333333 196.266667 699.733333 42.666667 512 42.666667z"  horiz-adv-x="1024" />

    
    <glyph glyph-name="bluetoothaudio" unicode="&#59020;" d="M605.866667 384l98.133333-98.133333c12.8 29.866667 17.066667 64 17.066667 98.133333 0 34.133333-8.533333 68.266667-17.066667 98.133333L605.866667 384zM832 610.133333 780.8 554.666667c25.6-51.2 42.666667-110.933333 42.666667-170.666667s-17.066667-119.466667-42.666667-170.666667l51.2-51.2c42.666667 64 64 145.066667 64 226.133333C896 469.333333 874.666667 546.133333 832 610.133333zM669.866667 567.466667 426.666667 810.666667 384 810.666667l0-324.266667L187.733333 682.666667 128 622.933333 366.933333 384 128 145.066667 187.733333 85.333333 384 281.6 384-42.666667l42.666667 0 243.2 243.2L486.4 384 669.866667 567.466667zM469.333333 648.533333l81.066667-81.066667L469.333333 486.4 469.333333 648.533333zM550.4 200.533333 469.333333 119.466667l0 162.133333L550.4 200.533333z"  horiz-adv-x="1024" />

    
    <glyph glyph-name="bluetoothconnected" unicode="&#59021;" d="M298.666667 384l-85.333333 85.333333-85.333333-85.333333 85.333333-85.333333L298.666667 384zM755.2 567.466667 512 810.666667l-42.666667 0 0-324.266667L273.066667 682.666667 213.333333 622.933333l238.933333-238.933333L213.333333 145.066667 273.066667 85.333333l196.266667 196.266667L469.333333-42.666667l42.666667 0 243.2 243.2L571.733333 384 755.2 567.466667zM554.666667 648.533333l81.066667-81.066667L554.666667 486.4 554.666667 648.533333zM635.733333 200.533333 554.666667 119.466667l0 162.133333L635.733333 200.533333zM810.666667 469.333333l-85.333333-85.333333 85.333333-85.333333 85.333333 85.333333L810.666667 469.333333z"  horiz-adv-x="1024" />

    
    <glyph glyph-name="bluetoothdisabled" unicode="&#59022;" d="M554.666667 648.533333l81.066667-81.066667-68.266667-68.266667 59.733333-59.733333 128 128L512 810.666667l-42.666667 0 0-213.333333 85.333333-85.333333L554.666667 648.533333zM230.4 725.333333 170.666667 665.6l281.6-281.6L213.333333 145.066667 273.066667 85.333333l196.266667 196.266667L469.333333-42.666667l42.666667 0 183.466667 183.466667 98.133333-98.133333 59.733333 59.733333L230.4 725.333333zM554.666667 119.466667l0 162.133333 81.066667-81.066667L554.666667 119.466667z"  horiz-adv-x="1024" />

    
    <glyph glyph-name="bluetoothsearching" unicode="&#59023;" d="M605.866667 384l98.133333-98.133333c12.8 29.866667 17.066667 64 17.066667 98.133333 0 34.133333-8.533333 68.266667-17.066667 98.133333L605.866667 384zM832 610.133333 780.8 554.666667c25.6-51.2 42.666667-110.933333 42.666667-170.666667s-17.066667-119.466667-42.666667-170.666667l51.2-51.2c42.666667 64 64 145.066667 64 226.133333C896 469.333333 874.666667 546.133333 832 610.133333zM669.866667 567.466667 426.666667 810.666667 384 810.666667l0-324.266667L187.733333 682.666667 128 622.933333 366.933333 384 128 145.066667 187.733333 85.333333 384 281.6 384-42.666667l42.666667 0 243.2 243.2L486.4 384 669.866667 567.466667zM469.333333 648.533333l81.066667-81.066667L469.333333 486.4 469.333333 648.533333zM550.4 200.533333 469.333333 119.466667l0 162.133333L550.4 200.533333z"  horiz-adv-x="1024" />

    
    <glyph glyph-name="bluetooth" unicode="&#59024;" d="M755.2 567.466667 512 810.666667l-42.666667 0 0-324.266667L273.066667 682.666667 213.333333 622.933333l238.933333-238.933333L213.333333 145.066667 273.066667 85.333333l196.266667 196.266667L469.333333-42.666667l42.666667 0 243.2 243.2L571.733333 384 755.2 567.466667zM554.666667 648.533333l81.066667-81.066667L554.666667 486.4 554.666667 648.533333zM635.733333 200.533333 554.666667 119.466667l0 162.133333L635.733333 200.533333z"  horiz-adv-x="1024" />

    
    <glyph glyph-name="book" unicode="&#59025;" d="M768-42.666667c46.933333 0 85.333333 38.4 85.333333 85.333333L853.333333 725.333333c0 46.933333-38.4 85.333333-85.333333 85.333333l-256 0 0-298.666667L405.333333 576 298.666667 512 298.666667 810.666667 256 810.666667C209.066667 810.666667 170.666667 772.266667 170.666667 725.333333l0-682.666667c0-46.933333 38.4-85.333333 85.333333-85.333333L768-42.666667z"  horiz-adv-x="1024" />

    
    <glyph glyph-name="bookmarkoutline" unicode="&#59026;" d="M725.333333 768 298.666667 768C251.733333 768 213.333333 729.6 213.333333 682.666667l0-682.666667 298.666667 128 298.666667-128L810.666667 682.666667C810.666667 729.6 772.266667 768 725.333333 768zM725.333333 128l-213.333333 93.866667L298.666667 128 298.666667 682.666667l426.666667 0L725.333333 128z"  horiz-adv-x="1024" />

    
    <glyph glyph-name="bookmark" unicode="&#59027;" d="M725.333333 768 298.666667 768C251.733333 768 213.333333 729.6 213.333333 682.666667l0-682.666667 298.666667 128 298.666667-128L810.666667 682.666667C810.666667 729.6 772.266667 768 725.333333 768z"  horiz-adv-x="1024" />

    
    <glyph glyph-name="brightnessauto" unicode="&#59028;" d="M465.066667 358.4l98.133333 0L512 512 465.066667 358.4zM853.333333 524.8 853.333333 725.333333l-200.533333 0L512 866.133333 371.2 725.333333 170.666667 725.333333l0-200.533333L29.866667 384 170.666667 243.2 170.666667 42.666667l200.533333 0 140.8-140.8 140.8 140.8L853.333333 42.666667l0 200.533333 140.8 140.8L853.333333 524.8zM610.133333 213.333333l-29.866667 85.333333-136.533333 0-29.866667-85.333333L332.8 213.333333 469.333333 597.333333l85.333333 0 136.533333-384L610.133333 213.333333z"  horiz-adv-x="1024" />

    
    <glyph glyph-name="brightnesshigh" unicode="&#59029;" d="M853.333333 524.8 853.333333 725.333333l-200.533333 0L512 866.133333 371.2 725.333333 170.666667 725.333333l0-200.533333L29.866667 384 170.666667 243.2 170.666667 42.666667l200.533333 0 140.8-140.8 140.8 140.8L853.333333 42.666667l0 200.533333 140.8 140.8L853.333333 524.8zM512 128c-140.8 0-256 115.2-256 256s115.2 256 256 256c140.8 0 256-115.2 256-256S652.8 128 512 128zM512 554.666667c-93.866667 0-170.666667-76.8-170.666667-170.666667 0-93.866667 76.8-170.666667 170.666667-170.666667s170.666667 76.8 170.666667 170.666667C682.666667 477.866667 605.866667 554.666667 512 554.666667z"  horiz-adv-x="1024" />

    
    <glyph glyph-name="brightnesslow" unicode="&#59030;" d="M853.333333 243.2l140.8 140.8L853.333333 524.8 853.333333 725.333333l-200.533333 0L512 866.133333 371.2 725.333333 170.666667 725.333333l0-200.533333L29.866667 384 170.666667 243.2 170.666667 42.666667l200.533333 0 140.8-140.8 140.8 140.8L853.333333 42.666667 853.333333 243.2zM512 128c-140.8 0-256 115.2-256 256s115.2 256 256 256c140.8 0 256-115.2 256-256S652.8 128 512 128z"  horiz-adv-x="1024" />

    
    <glyph glyph-name="brightnessmedium" unicode="&#59031;" d="M853.333333 243.2l140.8 140.8L853.333333 524.8 853.333333 725.333333l-200.533333 0L512 866.133333 371.2 725.333333 170.666667 725.333333l0-200.533333L29.866667 384 170.666667 243.2 170.666667 42.666667l200.533333 0 140.8-140.8 140.8 140.8L853.333333 42.666667 853.333333 243.2zM512 128 512 640c140.8 0 256-115.2 256-256S652.8 128 512 128z"  horiz-adv-x="1024" />

    
    <glyph glyph-name="bugreport" unicode="&#59032;" d="M853.333333 554.666667l-119.466667 0c-21.333333 34.133333-46.933333 64-76.8 85.333333L725.333333 708.266667 665.6 768l-93.866667-93.866667C554.666667 678.4 533.333333 682.666667 512 682.666667s-42.666667-4.266667-59.733333-8.533333L358.4 768 298.666667 708.266667 366.933333 640C337.066667 618.666667 311.466667 588.8 290.133333 554.666667L170.666667 554.666667l0-85.333333 89.6 0C256 456.533333 256 439.466667 256 426.666667l0-42.666667L170.666667 384l0-85.333333 85.333333 0 0-42.666667c0-12.8 0-29.866667 4.266667-42.666667L170.666667 213.333333l0-85.333333 119.466667 0c42.666667-76.8 128-128 221.866667-128s179.2 51.2 221.866667 128L853.333333 128l0 85.333333-89.6 0c4.266667 12.8 4.266667 29.866667 4.266667 42.666667l0 42.666667 85.333333 0 0 85.333333-85.333333 0 0 42.666667c0 12.8 0 29.866667-4.266667 42.666667L853.333333 469.333333 853.333333 554.666667zM597.333333 213.333333l-170.666667 0 0 85.333333 170.666667 0L597.333333 213.333333zM597.333333 384l-170.666667 0 0 85.333333 170.666667 0L597.333333 384z"  horiz-adv-x="1024" />

    
    <glyph glyph-name="cake" unicode="&#59033;" d="M512 661.333333c34.133333 0 64 29.866667 64 64 0 12.8-4.266667 21.333333-8.533333 34.133333L512 853.333333l-55.466667-93.866667c-4.266667-8.533333-8.533333-21.333333-8.533333-34.133333C448 691.2 477.866667 661.333333 512 661.333333zM789.333333 554.666667 554.666667 554.666667 554.666667 618.666667l-85.333333 0L469.333333 554.666667 234.666667 554.666667C128 554.666667 42.666667 469.333333 42.666667 362.666667c0-68.266667 34.133333-123.733333 85.333333-157.866667L128-85.333333l768 0 0 290.133333c51.2 34.133333 85.333333 93.866667 85.333333 157.866667C981.333333 469.333333 896 554.666667 789.333333 554.666667zM789.333333 256c-29.866667 0-55.466667 12.8-76.8 29.866667l-64 64-64-64C567.466667 268.8 541.866667 256 512 256c-29.866667 0-55.466667 12.8-76.8 29.866667l-64 64-64-64C290.133333 268.8 264.533333 256 234.666667 256 174.933333 256 128 302.933333 128 362.666667S174.933333 469.333333 234.666667 469.333333l554.666667 0c59.733333 0 106.666667-46.933333 106.666667-106.666667S849.066667 256 789.333333 256z"  horiz-adv-x="1024" />

    
    <glyph glyph-name="callend" unicode="&#59034;" d="M512 512c-68.266667 0-132.266667-12.8-196.266667-29.866667l0-132.266667c0-17.066667-8.533333-29.866667-25.6-38.4-42.666667-21.333333-81.066667-46.933333-115.2-81.066667-8.533333-8.533333-17.066667-12.8-29.866667-12.8-12.8 0-21.333333 4.266667-29.866667 12.8l-106.666667 106.666667C4.266667 345.6 0 354.133333 0 366.933333c0 12.8 4.266667 21.333333 12.8 29.866667C140.8 520.533333 320 597.333333 512 597.333333s371.2-76.8 499.2-200.533333c8.533333-8.533333 12.8-17.066667 12.8-29.866667 0-12.8-4.266667-21.333333-12.8-29.866667l-106.666667-106.666667c-8.533333-8.533333-17.066667-12.8-29.866667-12.8-12.8 0-21.333333 4.266667-29.866667 12.8-34.133333 29.866667-72.533333 59.733333-115.2 81.066667-12.8 8.533333-25.6 21.333333-25.6 38.4l0 132.266667C644.266667 499.2 580.266667 512 512 512z"  horiz-adv-x="1024" />

    
    <glyph glyph-name="callmade" unicode="&#59035;" d="M384 682.666667 384 597.333333 665.6 597.333333 128 59.733333 187.733333 0 725.333333 537.6 725.333333 256 810.666667 256 810.666667 682.666667Z"  horiz-adv-x="1024" />

    
    <glyph glyph-name="callmerge" unicode="&#59036;" d="M725.333333 25.6l59.733333 59.733333L640 230.4 580.266667 170.666667 725.333333 25.6zM320 554.666667 469.333333 554.666667l0-238.933333L238.933333 85.333333 298.666667 25.6l256 256L554.666667 554.666667l149.333333 0L512 746.666667 320 554.666667z"  horiz-adv-x="1024" />

    
    <glyph glyph-name="callmissed" unicode="&#59037;" d="M836.266667 597.333333 512 273.066667 273.066667 512 469.333333 512 469.333333 597.333333 128 597.333333 128 256 213.333333 256 213.333333 452.266667 512 153.6 896 537.6Z"  horiz-adv-x="1024" />

    
    <glyph glyph-name="callreceived" unicode="&#59038;" d="M896 708.266667 836.266667 768 298.666667 230.4 298.666667 512 213.333333 512 213.333333 85.333333 640 85.333333 640 170.666667 358.4 170.666667Z"  horiz-adv-x="1024" />

    
    <glyph glyph-name="callsplit" unicode="&#59039;" d="M597.333333 725.333333 695.466667 627.2 571.733333 503.466667 631.466667 443.733333 755.2 567.466667 853.333333 469.333333 853.333333 725.333333ZM426.666667 725.333333 170.666667 725.333333 170.666667 469.333333 268.8 567.466667 469.333333 366.933333 469.333333 42.666667 554.666667 42.666667 554.666667 401.066667 328.533333 627.2Z"  horiz-adv-x="1024" />

    
    <glyph glyph-name="call" unicode="&#59040;" d="M281.6 435.2c59.733333-119.466667 162.133333-217.6 281.6-281.6l93.866667 93.866667c12.8 12.8 29.866667 17.066667 42.666667 8.533333 46.933333-17.066667 98.133333-25.6 153.6-25.6 25.6 0 42.666667-17.066667 42.666667-42.666667L896 42.666667c0-25.6-17.066667-42.666667-42.666667-42.666667C452.266667 0 128 324.266667 128 725.333333c0 25.6 17.066667 42.666667 42.666667 42.666667l149.333333 0c25.6 0 42.666667-17.066667 42.666667-42.666667 0-51.2 8.533333-102.4 25.6-153.6 4.266667-12.8 0-29.866667-8.533333-42.666667L281.6 435.2z"  horiz-adv-x="1024" />

    
    <glyph glyph-name="cameraalt" unicode="&#59041;" d="M512 384m-136.533333 0a3.2 3.2 0 1 0 273.066667 0 3.2 3.2 0 1 0-273.066667 0ZM384 810.666667 307.2 725.333333 170.666667 725.333333C123.733333 725.333333 85.333333 686.933333 85.333333 640l0-512c0-46.933333 38.4-85.333333 85.333333-85.333333l682.666667 0c46.933333 0 85.333333 38.4 85.333333 85.333333L938.666667 640c0 46.933333-38.4 85.333333-85.333333 85.333333l-136.533333 0L640 810.666667 384 810.666667zM512 170.666667c-119.466667 0-213.333333 93.866667-213.333333 213.333333s93.866667 213.333333 213.333333 213.333333 213.333333-93.866667 213.333333-213.333333S631.466667 170.666667 512 170.666667z"  horiz-adv-x="1024" />

    
    <glyph glyph-name="cameraroll" unicode="&#59042;" d="M597.333333 682.666667c0 46.933333-38.4 85.333333-85.333333 85.333333l-42.666667 0L469.333333 810.666667c0 25.6-17.066667 42.666667-42.666667 42.666667L256 853.333333C230.4 853.333333 213.333333 836.266667 213.333333 810.666667l0-42.666667L170.666667 768C123.733333 768 85.333333 729.6 85.333333 682.666667l0-640c0-46.933333 38.4-85.333333 85.333333-85.333333l341.333333 0c46.933333 0 85.333333 38.4 85.333333 85.333333l341.333333 0L938.666667 682.666667 597.333333 682.666667zM512 128l-85.333333 0 0 85.333333 85.333333 0L512 128zM512 512l-85.333333 0L426.666667 597.333333l85.333333 0L512 512zM682.666667 128l-85.333333 0 0 85.333333 85.333333 0L682.666667 128zM682.666667 512l-85.333333 0L597.333333 597.333333l85.333333 0L682.666667 512zM853.333333 128l-85.333333 0 0 85.333333 85.333333 0L853.333333 128zM853.333333 512l-85.333333 0L768 597.333333l85.333333 0L853.333333 512z"  horiz-adv-x="1024" />

    
    <glyph glyph-name="camera" unicode="&#59043;" d="M401.066667 448l204.8 354.133333C576 806.4 541.866667 810.666667 512 810.666667 409.6 810.666667 315.733333 776.533333 243.2 712.533333l157.866667-268.8L401.066667 448zM917.333333 512c-38.4 123.733333-132.266667 226.133333-256 268.8L507.733333 512 917.333333 512zM930.133333 469.333333l-320 0 12.8-21.333333 204.8-354.133333C896 170.666667 938.666667 273.066667 938.666667 384 938.666667 413.866667 934.4 443.733333 930.133333 469.333333zM362.666667 384 196.266667 674.133333C128 597.333333 85.333333 494.933333 85.333333 384c0-29.866667 4.266667-59.733333 8.533333-85.333333l320 0L362.666667 384zM106.666667 256c38.4-123.733333 132.266667-226.133333 256-268.8l157.866667 268.8L106.666667 256zM584.533333 256l-166.4-290.133333c29.866667-8.533333 59.733333-8.533333 93.866667-8.533333 102.4 0 196.266667 34.133333 268.8 98.133333l-157.866667 268.8L584.533333 256z"  horiz-adv-x="1024" />

    
    <glyph glyph-name="cancel" unicode="&#59044;" d="M512 810.666667C277.333333 810.666667 85.333333 618.666667 85.333333 384s192-426.666667 426.666667-426.666667c234.666667 0 426.666667 192 426.666667 426.666667S746.666667 810.666667 512 810.666667zM725.333333 230.4 665.6 170.666667 512 324.266667 358.4 170.666667 298.666667 230.4l153.6 153.6L298.666667 537.6 358.4 597.333333l153.6-153.6L665.6 597.333333 725.333333 537.6 571.733333 384 725.333333 230.4z"  horiz-adv-x="1024" />

    
    <glyph glyph-name="castconnected" unicode="&#59045;" d="M42.666667 128l0-128 128 0C170.666667 72.533333 115.2 128 42.666667 128zM42.666667 298.666667l0-85.333333c119.466667 0 213.333333-93.866667 213.333333-213.333333l85.333333 0C341.333333 166.4 209.066667 298.666667 42.666667 298.666667zM810.666667 597.333333 213.333333 597.333333l0-68.266667c170.666667-55.466667 302.933333-187.733333 358.4-358.4L810.666667 170.666667 810.666667 597.333333zM42.666667 469.333333l0-85.333333c213.333333 0 384-170.666667 384-384l85.333333 0C512 260.266667 302.933333 469.333333 42.666667 469.333333zM896 768 128 768C81.066667 768 42.666667 729.6 42.666667 682.666667l0-128 85.333333 0L128 682.666667l768 0 0-597.333333-298.666667 0 0-85.333333 298.666667 0c46.933333 0 85.333333 38.4 85.333333 85.333333L981.333333 682.666667C981.333333 729.6 942.933333 768 896 768z"  horiz-adv-x="1024" />

    
    <glyph glyph-name="cast" unicode="&#59046;" d="M896 768 128 768C81.066667 768 42.666667 729.6 42.666667 682.666667l0-128 85.333333 0L128 682.666667l768 0 0-597.333333-298.666667 0 0-85.333333 298.666667 0c46.933333 0 85.333333 38.4 85.333333 85.333333L981.333333 682.666667C981.333333 729.6 942.933333 768 896 768zM42.666667 128l0-128 128 0C170.666667 72.533333 115.2 128 42.666667 128zM42.666667 298.666667l0-85.333333c119.466667 0 213.333333-93.866667 213.333333-213.333333l85.333333 0C341.333333 166.4 209.066667 298.666667 42.666667 298.666667zM42.666667 469.333333l0-85.333333c213.333333 0 384-170.666667 384-384l85.333333 0C512 260.266667 302.933333 469.333333 42.666667 469.333333z"  horiz-adv-x="1024" />

    
    <glyph glyph-name="chat" unicode="&#59047;" d="M853.333333 810.666667 170.666667 810.666667C123.733333 810.666667 85.333333 772.266667 85.333333 725.333333l0-768 170.666667 170.666667 597.333333 0c46.933333 0 85.333333 38.4 85.333333 85.333333L938.666667 725.333333C938.666667 772.266667 900.266667 810.666667 853.333333 810.666667zM256 512l512 0 0-85.333333L256 426.666667 256 512zM597.333333 298.666667 256 298.666667l0 85.333333 341.333333 0L597.333333 298.666667zM768 554.666667 256 554.666667 256 640l512 0L768 554.666667z"  horiz-adv-x="1024" />

    
    <glyph glyph-name="checkboxblank" unicode="&#59048;" d="M810.666667 768 213.333333 768C166.4 768 128 729.6 128 682.666667l0-597.333333c0-46.933333 38.4-85.333333 85.333333-85.333333l597.333333 0c46.933333 0 85.333333 38.4 85.333333 85.333333L896 682.666667C896 729.6 857.6 768 810.666667 768z"  horiz-adv-x="1024" />

    
    <glyph glyph-name="checkboxoutlineblank" unicode="&#59049;" d="M810.666667 682.666667l0-597.333333L213.333333 85.333333 213.333333 682.666667 810.666667 682.666667M810.666667 768 213.333333 768C166.4 768 128 729.6 128 682.666667l0-597.333333c0-46.933333 38.4-85.333333 85.333333-85.333333l597.333333 0c46.933333 0 85.333333 38.4 85.333333 85.333333L896 682.666667C896 729.6 857.6 768 810.666667 768L810.666667 768z"  horiz-adv-x="1024" />

    
    <glyph glyph-name="checkboxoutline" unicode="&#59050;" d="M337.066667 465.066667l-59.733333-59.733333L469.333333 213.333333 896 640l-59.733333 59.733333L469.333333 332.8 337.066667 465.066667zM810.666667 85.333333 213.333333 85.333333 213.333333 682.666667l426.666667 0L640 768 213.333333 768C166.4 768 128 729.6 128 682.666667l0-597.333333c0-46.933333 38.4-85.333333 85.333333-85.333333l597.333333 0c46.933333 0 85.333333 38.4 85.333333 85.333333l0 341.333333-85.333333 0L810.666667 85.333333z"  horiz-adv-x="1024" />

    
    <glyph glyph-name="checkbox" unicode="&#59051;" d="M810.666667 768 213.333333 768C166.4 768 128 729.6 128 682.666667l0-597.333333c0-46.933333 38.4-85.333333 85.333333-85.333333l597.333333 0c46.933333 0 85.333333 38.4 85.333333 85.333333L896 682.666667C896 729.6 857.6 768 810.666667 768zM426.666667 170.666667l-213.333333 213.333333 59.733333 59.733333 153.6-153.6 324.266667 324.266667L810.666667 554.666667 426.666667 170.666667z"  horiz-adv-x="1024" />

    
    <glyph glyph-name="checkcircleblank" unicode="&#59052;" d="M512 810.666667C277.333333 810.666667 85.333333 618.666667 85.333333 384c0-234.666667 192-426.666667 426.666667-426.666667 234.666667 0 426.666667 192 426.666667 426.666667C938.666667 618.666667 746.666667 810.666667 512 810.666667z"  horiz-adv-x="1024" />

    
    <glyph glyph-name="checkcircleoutlineblank" unicode="&#59053;" d="M512 810.666667C277.333333 810.666667 85.333333 618.666667 85.333333 384s192-426.666667 426.666667-426.666667c234.666667 0 426.666667 192 426.666667 426.666667S746.666667 810.666667 512 810.666667zM512 42.666667c-187.733333 0-341.333333 153.6-341.333333 341.333333s153.6 341.333333 341.333333 341.333333c187.733333 0 341.333333-153.6 341.333333-341.333333S699.733333 42.666667 512 42.666667z"  horiz-adv-x="1024" />

    
    <glyph glyph-name="checkcircleoutline" unicode="&#59054;" d="M337.066667 465.066667l-59.733333-59.733333L469.333333 213.333333 896 640l-59.733333 59.733333L469.333333 332.8 337.066667 465.066667zM853.333333 384c0-187.733333-153.6-341.333333-341.333333-341.333333s-341.333333 153.6-341.333333 341.333333 153.6 341.333333 341.333333 341.333333c34.133333 0 64-4.266667 93.866667-12.8l68.266667 68.266667C622.933333 797.866667 567.466667 810.666667 512 810.666667 277.333333 810.666667 85.333333 618.666667 85.333333 384s192-426.666667 426.666667-426.666667 426.666667 192 426.666667 426.666667L853.333333 384z"  horiz-adv-x="1024" />

    
    <glyph glyph-name="checkcircle" unicode="&#59055;" d="M512 810.666667C277.333333 810.666667 85.333333 618.666667 85.333333 384c0-234.666667 192-426.666667 426.666667-426.666667 234.666667 0 426.666667 192 426.666667 426.666667C938.666667 618.666667 746.666667 810.666667 512 810.666667zM426.666667 170.666667l-213.333333 213.333333 59.733333 59.733333 153.6-153.6 324.266667 324.266667L810.666667 554.666667 426.666667 170.666667z"  horiz-adv-x="1024" />

    
    <glyph glyph-name="check" unicode="&#59056;" d="M384 204.8 204.8 384 145.066667 324.266667 384 85.333333 896 597.333333 836.266667 657.066667Z"  horiz-adv-x="1024" />

    
    <glyph glyph-name="chevronleft" unicode="&#59057;" d="M657.066667 580.266667 597.333333 640 341.333333 384 597.333333 128 657.066667 187.733333 460.8 384Z"  horiz-adv-x="1024" />

    
    <glyph glyph-name="chevronright" unicode="&#59058;" d="M426.666667 640 366.933333 580.266667 563.2 384 366.933333 187.733333 426.666667 128 682.666667 384Z"  horiz-adv-x="1024" />

    
    <glyph glyph-name="chromecast" unicode="&#59059;" d="M512 810.666667C277.333333 810.666667 85.333333 618.666667 85.333333 384s192-426.666667 426.666667-426.666667c234.666667 0 426.666667 192 426.666667 426.666667S746.666667 810.666667 512 810.666667zM512 725.333333c128 0 234.666667-68.266667 294.4-170.666667L512 554.666667c-81.066667 0-153.6-59.733333-166.4-136.533333L243.2 593.066667C307.2 674.133333 401.066667 725.333333 512 725.333333zM640 384c0-72.533333-55.466667-128-128-128-72.533333 0-128 55.466667-128 128 0 72.533333 55.466667 128 128 128C584.533333 512 640 456.533333 640 384zM170.666667 384c0 64 17.066667 119.466667 46.933333 170.666667l149.333333-256 0 0c29.866667-51.2 85.333333-85.333333 145.066667-85.333333 21.333333 0 38.4 4.266667 55.466667 8.533333l-102.4-174.933333C298.666667 68.266667 170.666667 213.333333 170.666667 384zM512 42.666667l149.333333 256 0 0c12.8 25.6 25.6 55.466667 25.6 85.333333 0 51.2-21.333333 98.133333-59.733333 128l204.8 0c17.066667-38.4 25.6-81.066667 25.6-128C853.333333 196.266667 699.733333 42.666667 512 42.666667z"  horiz-adv-x="1024" />

    
    <glyph glyph-name="circlesadd" unicode="&#59060;" d="M512 810.666667C277.333333 810.666667 85.333333 618.666667 85.333333 384c0-234.666667 192-426.666667 426.666667-426.666667s426.666667 192 426.666667 426.666667C938.666667 618.666667 746.666667 810.666667 512 810.666667zM512 42.666667c-187.733333 0-341.333333 153.6-341.333333 341.333333s153.6 341.333333 341.333333 341.333333c187.733333 0 341.333333-153.6 341.333333-341.333333S699.733333 42.666667 512 42.666667zM554.666667 426.666667 554.666667 554.666667l-85.333333 0 0-128L341.333333 426.666667l0-85.333333 128 0 0-128 85.333333 0 0 128 128 0 0 85.333333L554.666667 426.666667z"  horiz-adv-x="1024" />

    
    <glyph glyph-name="circlesextended" unicode="&#59061;" d="M512 469.333333c93.866667 0 170.666667 76.8 170.666667 170.666667 0 93.866667-76.8 170.666667-170.666667 170.666667C418.133333 810.666667 341.333333 733.866667 341.333333 640 341.333333 546.133333 418.133333 469.333333 512 469.333333zM512 725.333333c46.933333 0 85.333333-38.4 85.333333-85.333333 0-46.933333-38.4-85.333333-85.333333-85.333333-46.933333 0-85.333333 38.4-85.333333 85.333333C426.666667 686.933333 465.066667 725.333333 512 725.333333zM256 341.333333c-93.866667 0-170.666667-76.8-170.666667-170.666667 0-93.866667 76.8-170.666667 170.666667-170.666667 93.866667 0 170.666667 76.8 170.666667 170.666667C426.666667 264.533333 349.866667 341.333333 256 341.333333zM256 85.333333c-46.933333 0-85.333333 38.4-85.333333 85.333333 0 46.933333 38.4 85.333333 85.333333 85.333333 46.933333 0 85.333333-38.4 85.333333-85.333333C341.333333 123.733333 302.933333 85.333333 256 85.333333zM512 422.4c-42.666667 0-81.066667-38.4-81.066667-81.066667s38.4-81.066667 81.066667-81.066667c42.666667 0 81.066667 38.4 81.066667 81.066667S554.666667 422.4 512 422.4zM768 341.333333c-93.866667 0-170.666667-76.8-170.666667-170.666667 0-93.866667 76.8-170.666667 170.666667-170.666667 93.866667 0 170.666667 76.8 170.666667 170.666667C938.666667 264.533333 861.866667 341.333333 768 341.333333zM768 85.333333c-46.933333 0-85.333333 38.4-85.333333 85.333333 0 46.933333 38.4 85.333333 85.333333 85.333333 46.933333 0 85.333333-38.4 85.333333-85.333333C853.333333 123.733333 814.933333 85.333333 768 85.333333z"  horiz-adv-x="1024" />

    
    <glyph glyph-name="circles" unicode="&#59062;" d="M712.533333 256c-34.133333-98.133333-128-170.666667-243.2-170.666667-140.8 0-256 115.2-256 256 0 110.933333 72.533333 204.8 170.666667 243.2C384 588.8 384 593.066667 384 597.333333c0 42.666667 8.533333 85.333333 21.333333 123.733333C226.133333 691.2 85.333333 533.333333 85.333333 341.333333c0-213.333333 170.666667-384 384-384 192 0 349.866667 140.8 379.733333 320C810.666667 264.533333 768 256 725.333333 256 721.066667 256 716.8 256 712.533333 256zM725.333333 853.333333c-140.8 0-256-115.2-256-256s115.2-256 256-256c140.8 0 256 115.2 256 256S866.133333 853.333333 725.333333 853.333333zM725.333333 469.333333c-72.533333 0-128 55.466667-128 128s55.466667 128 128 128c72.533333 0 128-55.466667 128-128S797.866667 469.333333 725.333333 469.333333z"  horiz-adv-x="1024" />

    
    <glyph glyph-name="clear" unicode="&#59063;" d="M810.666667 622.933333 750.933333 682.666667 512 443.733333 273.066667 682.666667 213.333333 622.933333 452.266667 384 213.333333 145.066667 273.066667 85.333333 512 324.266667 750.933333 85.333333 810.666667 145.066667 571.733333 384Z"  horiz-adv-x="1024" />

    
    <glyph glyph-name="close" unicode="&#59064;" d="M810.666667 622.933333 750.933333 682.666667 512 443.733333 273.066667 682.666667 213.333333 622.933333 452.266667 384 213.333333 145.066667 273.066667 85.333333 512 324.266667 750.933333 85.333333 810.666667 145.066667 571.733333 384Z"  horiz-adv-x="1024" />

    
    <glyph glyph-name="closedcaption" unicode="&#59065;" d="M810.666667 725.333333 213.333333 725.333333C166.4 725.333333 128 686.933333 128 640l0-512c0-46.933333 38.4-85.333333 85.333333-85.333333l597.333333 0c46.933333 0 85.333333 38.4 85.333333 85.333333L896 640C896 686.933333 857.6 725.333333 810.666667 725.333333zM469.333333 426.666667 405.333333 426.666667l0 21.333333-85.333333 0 0-128 85.333333 0L405.333333 341.333333 469.333333 341.333333l0-42.666667c0-25.6-17.066667-42.666667-42.666667-42.666667L298.666667 256c-25.6 0-42.666667 17.066667-42.666667 42.666667l0 170.666667c0 25.6 17.066667 42.666667 42.666667 42.666667l128 0c25.6 0 42.666667-17.066667 42.666667-42.666667L469.333333 426.666667zM768 426.666667l-64 0 0 21.333333-85.333333 0 0-128 85.333333 0L704 341.333333 768 341.333333l0-42.666667c0-25.6-17.066667-42.666667-42.666667-42.666667l-128 0c-25.6 0-42.666667 17.066667-42.666667 42.666667l0 170.666667c0 25.6 17.066667 42.666667 42.666667 42.666667l128 0c25.6 0 42.666667-17.066667 42.666667-42.666667L768 426.666667z"  horiz-adv-x="1024" />

    
    <glyph glyph-name="cloudcircle" unicode="&#59066;" d="M512 810.666667C277.333333 810.666667 85.333333 618.666667 85.333333 384s192-426.666667 426.666667-426.666667c234.666667 0 426.666667 192 426.666667 426.666667S746.666667 810.666667 512 810.666667zM725.333333 256 341.333333 256 320 256C260.266667 256 213.333333 302.933333 213.333333 362.666667S260.266667 469.333333 320 469.333333l25.6 0c17.066667 72.533333 85.333333 128 166.4 128 93.866667 0 170.666667-76.8 170.666667-170.666667l42.666667 0c46.933333 0 85.333333-38.4 85.333333-85.333333S772.266667 256 725.333333 256z"  horiz-adv-x="1024" />

    
    <glyph glyph-name="clouddone" unicode="&#59067;" d="M827.733333 469.333333c-29.866667 145.066667-157.866667 256-315.733333 256C388.266667 725.333333 281.6 657.066667 230.4 554.666667 98.133333 537.6 0 430.933333 0 298.666667c0-140.8 115.2-256 256-256l554.666667 0c119.466667 0 213.333333 93.866667 213.333333 213.333333C1024 366.933333 934.4 460.8 827.733333 469.333333zM426.666667 170.666667l-149.333333 149.333333 59.733333 59.733333 89.6-89.6L648.533333 512l59.733333-59.733333L426.666667 170.666667z"  horiz-adv-x="1024" />

    
    <glyph glyph-name="clouddownload" unicode="&#59068;" d="M827.733333 469.333333c-29.866667 145.066667-157.866667 256-315.733333 256C388.266667 725.333333 281.6 657.066667 230.4 554.666667 98.133333 537.6 0 430.933333 0 298.666667c0-140.8 115.2-256 256-256l554.666667 0c119.466667 0 213.333333 93.866667 213.333333 213.333333C1024 366.933333 934.4 460.8 827.733333 469.333333zM725.333333 341.333333l-213.333333-213.333333-213.333333 213.333333 128 0L426.666667 512l170.666667 0 0-170.666667L725.333333 341.333333z"  horiz-adv-x="1024" />

    
    <glyph glyph-name="cloudoff" unicode="&#59069;" d="M827.733333 469.333333c-29.866667 145.066667-157.866667 256-315.733333 256-64 0-123.733333-17.066667-170.666667-51.2l64-64C435.2 631.466667 473.6 640 512 640c128 0 234.666667-106.666667 234.666667-234.666667L746.666667 384 810.666667 384c72.533333 0 128-55.466667 128-128 0-46.933333-25.6-89.6-68.266667-110.933333l64-64c55.466667 38.4 89.6 102.4 89.6 174.933333C1024 366.933333 934.4 460.8 827.733333 469.333333zM128 669.866667 247.466667 554.666667C110.933333 546.133333 0 435.2 0 298.666667c0-140.8 115.2-256 256-256l499.2 0 85.333333-85.333333 55.466667 55.466667L183.466667 725.333333 128 669.866667zM328.533333 469.333333l341.333333-341.333333L256 128c-93.866667 0-170.666667 76.8-170.666667 170.666667 0 93.866667 76.8 170.666667 170.666667 170.666667L328.533333 469.333333z"  horiz-adv-x="1024" />

    
    <glyph glyph-name="cloudqueue" unicode="&#59070;" d="M827.733333 469.333333c-29.866667 145.066667-157.866667 256-315.733333 256C388.266667 725.333333 281.6 657.066667 230.4 554.666667 98.133333 537.6 0 430.933333 0 298.666667c0-140.8 115.2-256 256-256l554.666667 0c119.466667 0 213.333333 93.866667 213.333333 213.333333C1024 366.933333 934.4 460.8 827.733333 469.333333zM810.666667 128 256 128c-93.866667 0-170.666667 76.8-170.666667 170.666667 0 93.866667 76.8 170.666667 170.666667 170.666667l29.866667 0C315.733333 567.466667 405.333333 640 512 640c128 0 234.666667-106.666667 234.666667-234.666667L746.666667 384 810.666667 384c72.533333 0 128-55.466667 128-128S883.2 128 810.666667 128z"  horiz-adv-x="1024" />

    
    <glyph glyph-name="cloudupload" unicode="&#59071;" d="M827.733333 469.333333c-29.866667 145.066667-157.866667 256-315.733333 256C388.266667 725.333333 281.6 657.066667 230.4 554.666667 98.133333 537.6 0 430.933333 0 298.666667c0-140.8 115.2-256 256-256l554.666667 0c119.466667 0 213.333333 93.866667 213.333333 213.333333C1024 366.933333 934.4 460.8 827.733333 469.333333zM597.333333 341.333333l0-170.666667-170.666667 0 0 170.666667L298.666667 341.333333l213.333333 213.333333 213.333333-213.333333L597.333333 341.333333z"  horiz-adv-x="1024" />

    
    <glyph glyph-name="cloud" unicode="&#59072;" d="M827.733333 469.333333c-29.866667 145.066667-157.866667 256-315.733333 256C388.266667 725.333333 281.6 657.066667 230.4 554.666667 98.133333 537.6 0 430.933333 0 298.666667c0-140.8 115.2-256 256-256l554.666667 0c119.466667 0 213.333333 93.866667 213.333333 213.333333C1024 366.933333 934.4 460.8 827.733333 469.333333z"  horiz-adv-x="1024" />

    
    <glyph glyph-name="comment" unicode="&#59073;" d="M938.666667 725.333333c0 46.933333-38.4 85.333333-85.333333 85.333333L170.666667 810.666667C123.733333 810.666667 85.333333 772.266667 85.333333 725.333333l0-512c0-46.933333 38.4-85.333333 85.333333-85.333333l597.333333 0 170.666667-170.666667L938.666667 725.333333zM768 298.666667 256 298.666667l0 85.333333 512 0L768 298.666667zM768 426.666667 256 426.666667 256 512l512 0L768 426.666667zM768 554.666667 256 554.666667 256 640l512 0L768 554.666667z"  horiz-adv-x="1024" />

    
    <glyph glyph-name="communities" unicode="&#59074;" d="M384 384c-46.933333 0-85.333333-38.4-85.333333-85.333333s38.4-85.333333 85.333333-85.333333c46.933333 0 85.333333 38.4 85.333333 85.333333S430.933333 384 384 384zM597.333333 512c0 46.933333-38.4 85.333333-85.333333 85.333333-46.933333 0-85.333333-38.4-85.333333-85.333333s38.4-85.333333 85.333333-85.333333C558.933333 426.666667 597.333333 465.066667 597.333333 512zM512 810.666667C277.333333 810.666667 85.333333 618.666667 85.333333 384c0-234.666667 192-426.666667 426.666667-426.666667 234.666667 0 426.666667 192 426.666667 426.666667C938.666667 618.666667 746.666667 810.666667 512 810.666667zM512 42.666667c-187.733333 0-341.333333 153.6-341.333333 341.333333 0 187.733333 153.6 341.333333 341.333333 341.333333 187.733333 0 341.333333-153.6 341.333333-341.333333C853.333333 196.266667 699.733333 42.666667 512 42.666667zM640 384c-46.933333 0-85.333333-38.4-85.333333-85.333333s38.4-85.333333 85.333333-85.333333c46.933333 0 85.333333 38.4 85.333333 85.333333S686.933333 384 640 384z"  horiz-adv-x="1024" />

    
    <glyph glyph-name="contentcopy" unicode="&#59075;" d="M682.666667 853.333333 170.666667 853.333333C123.733333 853.333333 85.333333 814.933333 85.333333 768l0-597.333333 85.333333 0L170.666667 768l512 0L682.666667 853.333333zM810.666667 682.666667 341.333333 682.666667C294.4 682.666667 256 644.266667 256 597.333333l0-597.333333c0-46.933333 38.4-85.333333 85.333333-85.333333l469.333333 0c46.933333 0 85.333333 38.4 85.333333 85.333333L896 597.333333C896 644.266667 857.6 682.666667 810.666667 682.666667zM810.666667 0 341.333333 0 341.333333 597.333333l469.333333 0L810.666667 0z"  horiz-adv-x="1024" />

    
    <glyph glyph-name="contentcut" unicode="&#59076;" d="M426.666667 640c0 93.866667-76.8 170.666667-170.666667 170.666667S85.333333 733.866667 85.333333 640c0-93.866667 76.8-170.666667 170.666667-170.666667 25.6 0 46.933333 4.266667 68.266667 17.066667L426.666667 384l-102.4-102.4C302.933333 294.4 281.6 298.666667 256 298.666667c-93.866667 0-170.666667-76.8-170.666667-170.666667 0-93.866667 76.8-170.666667 170.666667-170.666667s170.666667 76.8 170.666667 170.666667c0 25.6-4.266667 46.933333-17.066667 68.266667L512 298.666667l298.666667-298.666667 170.666667 0L409.6 571.733333C422.4 593.066667 426.666667 614.4 426.666667 640zM256 554.666667C209.066667 554.666667 170.666667 593.066667 170.666667 640s38.4 85.333333 85.333333 85.333333c46.933333 0 85.333333-38.4 85.333333-85.333333S302.933333 554.666667 256 554.666667zM256 42.666667c-46.933333 0-85.333333 38.4-85.333333 85.333333s38.4 85.333333 85.333333 85.333333c46.933333 0 85.333333-38.4 85.333333-85.333333S302.933333 42.666667 256 42.666667zM512 405.333333c12.8 0 21.333333-8.533333 21.333333-21.333333 0-12.8-8.533333-21.333333-21.333333-21.333333-12.8 0-21.333333 8.533333-21.333333 21.333333C490.666667 396.8 499.2 405.333333 512 405.333333zM981.333333 768l-170.666667 0-256-256 85.333333-85.333333L981.333333 768z"  horiz-adv-x="1024" />

    
    <glyph glyph-name="contentpaste" unicode="&#59077;" d="M810.666667 810.666667l-179.2 0c-17.066667 51.2-64 85.333333-119.466667 85.333333-55.466667 0-102.4-34.133333-119.466667-85.333333L213.333333 810.666667C166.4 810.666667 128 772.266667 128 725.333333l0-682.666667c0-46.933333 38.4-85.333333 85.333333-85.333333l597.333333 0c46.933333 0 85.333333 38.4 85.333333 85.333333L896 725.333333C896 772.266667 857.6 810.666667 810.666667 810.666667zM512 810.666667c25.6 0 42.666667-17.066667 42.666667-42.666667s-17.066667-42.666667-42.666667-42.666667c-25.6 0-42.666667 17.066667-42.666667 42.666667S486.4 810.666667 512 810.666667zM810.666667 42.666667 213.333333 42.666667 213.333333 725.333333l85.333333 0 0-128 426.666667 0L725.333333 725.333333l85.333333 0L810.666667 42.666667z"  horiz-adv-x="1024" />

    
    <glyph glyph-name="create" unicode="&#59078;" d="M128 162.133333 128 0l162.133333 0L759.466667 473.6l-162.133333 162.133333L128 162.133333zM883.2 597.333333c17.066667 17.066667 17.066667 42.666667 0 59.733333l-98.133333 98.133333c-17.066667 17.066667-42.666667 17.066667-59.733333 0l-76.8-76.8 162.133333-162.133333L883.2 597.333333z"  horiz-adv-x="1024" />

    
    <glyph glyph-name="creditcard" unicode="&#59079;" d="M853.333333 725.333333 170.666667 725.333333C123.733333 725.333333 85.333333 686.933333 85.333333 640l0-512c0-46.933333 38.4-85.333333 85.333333-85.333333l682.666667 0c46.933333 0 85.333333 38.4 85.333333 85.333333L938.666667 640C938.666667 686.933333 900.266667 725.333333 853.333333 725.333333zM853.333333 128 170.666667 128l0 256 682.666667 0L853.333333 128zM853.333333 554.666667 170.666667 554.666667 170.666667 640l682.666667 0L853.333333 554.666667z"  horiz-adv-x="1024" />

    
    <glyph glyph-name="cropfree" unicode="&#59080;" d="M128 682.666667l0-170.666667 85.333333 0L213.333333 682.666667l170.666667 0L384 768 213.333333 768C166.4 768 128 729.6 128 682.666667zM213.333333 256 128 256l0-170.666667c0-46.933333 38.4-85.333333 85.333333-85.333333l170.666667 0 0 85.333333L213.333333 85.333333 213.333333 256zM810.666667 85.333333l-170.666667 0 0-85.333333 170.666667 0c46.933333 0 85.333333 38.4 85.333333 85.333333l0 170.666667-85.333333 0L810.666667 85.333333zM810.666667 768l-170.666667 0 0-85.333333 170.666667 0 0-170.666667 85.333333 0L896 682.666667C896 729.6 857.6 768 810.666667 768z"  horiz-adv-x="1024" />

    
    <glyph glyph-name="croplandscape" unicode="&#59081;" d="M810.666667 682.666667 213.333333 682.666667C166.4 682.666667 128 644.266667 128 597.333333l0-426.666667c0-46.933333 38.4-85.333333 85.333333-85.333333l597.333333 0c46.933333 0 85.333333 38.4 85.333333 85.333333L896 597.333333C896 644.266667 857.6 682.666667 810.666667 682.666667zM810.666667 170.666667 213.333333 170.666667 213.333333 597.333333l597.333333 0L810.666667 170.666667z"  horiz-adv-x="1024" />

    
    <glyph glyph-name="cropportrait" unicode="&#59082;" d="M725.333333 768 298.666667 768C251.733333 768 213.333333 729.6 213.333333 682.666667l0-597.333333c0-46.933333 38.4-85.333333 85.333333-85.333333l426.666667 0c46.933333 0 85.333333 38.4 85.333333 85.333333L810.666667 682.666667C810.666667 729.6 772.266667 768 725.333333 768zM725.333333 85.333333 298.666667 85.333333 298.666667 682.666667l426.666667 0L725.333333 85.333333z"  horiz-adv-x="1024" />

    
    <glyph glyph-name="cropsquare" unicode="&#59083;" d="M768 725.333333 256 725.333333C209.066667 725.333333 170.666667 686.933333 170.666667 640l0-512c0-46.933333 38.4-85.333333 85.333333-85.333333l512 0c46.933333 0 85.333333 38.4 85.333333 85.333333L853.333333 640C853.333333 686.933333 814.933333 725.333333 768 725.333333zM768 128 256 128 256 640l512 0L768 128z"  horiz-adv-x="1024" />

    
    <glyph glyph-name="crop" unicode="&#59084;" d="M725.333333 256l85.333333 0L810.666667 597.333333c0 46.933333-38.4 85.333333-85.333333 85.333333L384 682.666667l0-85.333333 341.333333 0L725.333333 256zM298.666667 170.666667 298.666667 853.333333 213.333333 853.333333l0-170.666667L42.666667 682.666667l0-85.333333 170.666667 0 0-426.666667c0-46.933333 38.4-85.333333 85.333333-85.333333l426.666667 0 0-170.666667 85.333333 0 0 170.666667 170.666667 0 0 85.333333L298.666667 170.666667z"  horiz-adv-x="1024" />

    
    <glyph glyph-name="datausage" unicode="&#59085;" d="M554.666667 806.4l0-128c145.066667-21.333333 256-145.066667 256-294.4 0-38.4-8.533333-72.533333-21.333333-106.666667l110.933333-64c25.6 51.2 38.4 110.933333 38.4 174.933333C938.666667 605.866667 772.266667 785.066667 554.666667 806.4zM512 85.333333c-166.4 0-298.666667 132.266667-298.666667 298.666667 0 149.333333 110.933333 273.066667 256 294.4l0 128C251.733333 789.333333 85.333333 605.866667 85.333333 384c0-234.666667 192-426.666667 426.666667-426.666667 140.8 0 264.533333 68.266667 345.6 174.933333l-110.933333 64C691.2 128 605.866667 85.333333 512 85.333333z"  horiz-adv-x="1024" />

    
    <glyph glyph-name="delete" unicode="&#59086;" d="M256 85.333333c0-46.933333 38.4-85.333333 85.333333-85.333333l341.333333 0c46.933333 0 85.333333 38.4 85.333333 85.333333L768 597.333333 256 597.333333 256 85.333333zM810.666667 725.333333l-149.333333 0-42.666667 42.666667-213.333333 0-42.666667-42.666667L213.333333 725.333333l0-85.333333 597.333333 0L810.666667 725.333333z"  horiz-adv-x="1024" />

    
    <glyph glyph-name="developermode" unicode="&#59087;" d="M298.666667 682.666667l426.666667 0 0-85.333333 85.333333 0L810.666667 768c0 46.933333-38.4 85.333333-85.333333 85.333333L298.666667 853.333333C251.733333 853.333333 213.333333 814.933333 213.333333 768l0-170.666667 85.333333 0L298.666667 682.666667zM657.066667 187.733333 853.333333 384l-196.266667 196.266667L597.333333 520.533333l136.533333-136.533333L597.333333 247.466667 657.066667 187.733333zM426.666667 247.466667 290.133333 384 426.666667 520.533333 366.933333 580.266667 170.666667 384l196.266667-196.266667L426.666667 247.466667zM725.333333 85.333333 298.666667 85.333333l0 85.333333L213.333333 170.666667l0-170.666667c0-46.933333 38.4-85.333333 85.333333-85.333333l426.666667 0c46.933333 0 85.333333 38.4 85.333333 85.333333l0 170.666667-85.333333 0L725.333333 85.333333z"  horiz-adv-x="1024" />

    
    <glyph glyph-name="dialpad" unicode="&#59088;" d="M512 85.333333c-46.933333 0-85.333333-38.4-85.333333-85.333333 0-46.933333 38.4-85.333333 85.333333-85.333333s85.333333 38.4 85.333333 85.333333C597.333333 46.933333 558.933333 85.333333 512 85.333333zM256 853.333333C209.066667 853.333333 170.666667 814.933333 170.666667 768c0-46.933333 38.4-85.333333 85.333333-85.333333s85.333333 38.4 85.333333 85.333333C341.333333 814.933333 302.933333 853.333333 256 853.333333zM256 597.333333C209.066667 597.333333 170.666667 558.933333 170.666667 512c0-46.933333 38.4-85.333333 85.333333-85.333333s85.333333 38.4 85.333333 85.333333C341.333333 558.933333 302.933333 597.333333 256 597.333333zM256 341.333333c-46.933333 0-85.333333-38.4-85.333333-85.333333 0-46.933333 38.4-85.333333 85.333333-85.333333s85.333333 38.4 85.333333 85.333333C341.333333 302.933333 302.933333 341.333333 256 341.333333zM768 682.666667c46.933333 0 85.333333 38.4 85.333333 85.333333 0 46.933333-38.4 85.333333-85.333333 85.333333s-85.333333-38.4-85.333333-85.333333C682.666667 721.066667 721.066667 682.666667 768 682.666667zM512 341.333333c-46.933333 0-85.333333-38.4-85.333333-85.333333 0-46.933333 38.4-85.333333 85.333333-85.333333s85.333333 38.4 85.333333 85.333333C597.333333 302.933333 558.933333 341.333333 512 341.333333zM768 341.333333c-46.933333 0-85.333333-38.4-85.333333-85.333333 0-46.933333 38.4-85.333333 85.333333-85.333333s85.333333 38.4 85.333333 85.333333C853.333333 302.933333 814.933333 341.333333 768 341.333333zM768 597.333333c-46.933333 0-85.333333-38.4-85.333333-85.333333 0-46.933333 38.4-85.333333 85.333333-85.333333s85.333333 38.4 85.333333 85.333333C853.333333 558.933333 814.933333 597.333333 768 597.333333zM512 597.333333c-46.933333 0-85.333333-38.4-85.333333-85.333333 0-46.933333 38.4-85.333333 85.333333-85.333333s85.333333 38.4 85.333333 85.333333C597.333333 558.933333 558.933333 597.333333 512 597.333333zM512 853.333333c-46.933333 0-85.333333-38.4-85.333333-85.333333 0-46.933333 38.4-85.333333 85.333333-85.333333s85.333333 38.4 85.333333 85.333333C597.333333 814.933333 558.933333 853.333333 512 853.333333z"  horiz-adv-x="1024" />

    
    <glyph glyph-name="directionsbike" unicode="&#59089;" d="M682.666667 691.2c42.666667 0 76.8 34.133333 76.8 76.8S725.333333 844.8 682.666667 844.8c-42.666667 0-76.8-34.133333-76.8-76.8S640 691.2 682.666667 691.2zM810.666667 384c-119.466667 0-213.333333-93.866667-213.333333-213.333333 0-119.466667 93.866667-213.333333 213.333333-213.333333 119.466667 0 213.333333 93.866667 213.333333 213.333333C1024 290.133333 930.133333 384 810.666667 384zM810.666667 21.333333c-81.066667 0-149.333333 68.266667-149.333333 149.333333s68.266667 149.333333 149.333333 149.333333c81.066667 0 149.333333-68.266667 149.333333-149.333333S891.733333 21.333333 810.666667 21.333333zM631.466667 469.333333 810.666667 469.333333 810.666667 546.133333l-136.533333 0-81.066667 140.8c-12.8 21.333333-34.133333 34.133333-64 34.133333-21.333333 0-38.4-8.533333-51.2-21.333333L320 541.866667C307.2 529.066667 298.666667 512 298.666667 490.666667c0-25.6 12.8-51.2 34.133333-64l145.066667-85.333333 0-213.333333L554.666667 128l0 277.333333-93.866667 72.533333 98.133333 98.133333L631.466667 469.333333zM213.333333 384c-119.466667 0-213.333333-93.866667-213.333333-213.333333 0-119.466667 93.866667-213.333333 213.333333-213.333333 119.466667 0 213.333333 93.866667 213.333333 213.333333C426.666667 290.133333 332.8 384 213.333333 384zM213.333333 21.333333c-81.066667 0-149.333333 68.266667-149.333333 149.333333s68.266667 149.333333 149.333333 149.333333c81.066667 0 149.333333-68.266667 149.333333-149.333333S294.4 21.333333 213.333333 21.333333z"  horiz-adv-x="1024" />

    
    <glyph glyph-name="directionsbus" unicode="&#59090;" d="M170.666667 213.333333c0-38.4 17.066667-72.533333 42.666667-93.866667L213.333333 42.666667c0-25.6 17.066667-42.666667 42.666667-42.666667l42.666667 0c25.6 0 42.666667 17.066667 42.666667 42.666667l0 42.666667 341.333333 0 0-42.666667c0-25.6 17.066667-42.666667 42.666667-42.666667l42.666667 0c25.6 0 42.666667 17.066667 42.666667 42.666667l0 76.8c25.6 21.333333 42.666667 55.466667 42.666667 93.866667L853.333333 640c0 149.333333-153.6 170.666667-341.333333 170.666667C324.266667 810.666667 170.666667 789.333333 170.666667 640L170.666667 213.333333zM320 170.666667C285.866667 170.666667 256 200.533333 256 234.666667S285.866667 298.666667 320 298.666667C354.133333 298.666667 384 268.8 384 234.666667S354.133333 170.666667 320 170.666667zM704 170.666667c-34.133333 0-64 29.866667-64 64s29.866667 64 64 64c34.133333 0 64-29.866667 64-64S738.133333 170.666667 704 170.666667zM768 426.666667 256 426.666667 256 640l512 0L768 426.666667z"  horiz-adv-x="1024" />

    
    <glyph glyph-name="directionscar" unicode="&#59091;" d="M806.4 640c-8.533333 25.6-34.133333 42.666667-59.733333 42.666667l-469.333333 0C247.466667 682.666667 226.133333 665.6 217.6 640L128 384l0-341.333333c0-25.6 17.066667-42.666667 42.666667-42.666667l42.666667 0c25.6 0 42.666667 17.066667 42.666667 42.666667l0 42.666667 512 0 0-42.666667c0-25.6 17.066667-42.666667 42.666667-42.666667l42.666667 0c25.6 0 42.666667 17.066667 42.666667 42.666667l0 341.333333L806.4 640zM277.333333 213.333333C243.2 213.333333 213.333333 243.2 213.333333 277.333333S243.2 341.333333 277.333333 341.333333C311.466667 341.333333 341.333333 311.466667 341.333333 277.333333S311.466667 213.333333 277.333333 213.333333zM746.666667 213.333333c-34.133333 0-64 29.866667-64 64s29.866667 64 64 64c34.133333 0 64-29.866667 64-64S780.8 213.333333 746.666667 213.333333zM213.333333 426.666667l64 192 469.333333 0L810.666667 426.666667 213.333333 426.666667z"  horiz-adv-x="1024" />

    
    <glyph glyph-name="directionssubway" unicode="&#59092;" d="M512 810.666667C324.266667 810.666667 170.666667 789.333333 170.666667 640l0-405.333333C170.666667 153.6 238.933333 85.333333 320 85.333333L256 21.333333 256 0l512 0 0 21.333333L704 85.333333c81.066667 0 149.333333 68.266667 149.333333 149.333333L853.333333 640C853.333333 789.333333 699.733333 810.666667 512 810.666667zM320 170.666667C285.866667 170.666667 256 200.533333 256 234.666667 256 268.8 285.866667 298.666667 320 298.666667 354.133333 298.666667 384 268.8 384 234.666667 384 200.533333 354.133333 170.666667 320 170.666667zM469.333333 426.666667 256 426.666667 256 640l213.333333 0L469.333333 426.666667zM704 170.666667c-34.133333 0-64 29.866667-64 64 0 34.133333 29.866667 64 64 64 34.133333 0 64-29.866667 64-64C768 200.533333 738.133333 170.666667 704 170.666667zM768 426.666667l-213.333333 0L554.666667 640l213.333333 0L768 426.666667z"  horiz-adv-x="1024" />

    
    <glyph glyph-name="directionstrain" unicode="&#59093;" d="M170.666667 234.666667C170.666667 153.6 238.933333 85.333333 320 85.333333L256 21.333333 256 0l512 0 0 21.333333L704 85.333333c81.066667 0 149.333333 68.266667 149.333333 149.333333L853.333333 682.666667c0 149.333333-153.6 170.666667-341.333333 170.666667C324.266667 853.333333 170.666667 832 170.666667 682.666667L170.666667 234.666667zM512 170.666667c-46.933333 0-85.333333 38.4-85.333333 85.333333s38.4 85.333333 85.333333 85.333333c46.933333 0 85.333333-38.4 85.333333-85.333333S558.933333 170.666667 512 170.666667zM768 469.333333 256 469.333333 256 682.666667l512 0L768 469.333333z"  horiz-adv-x="1024" />

    
    <glyph glyph-name="directionstransit" unicode="&#59094;" d="M512 810.666667C324.266667 810.666667 170.666667 789.333333 170.666667 640l0-405.333333C170.666667 153.6 238.933333 85.333333 320 85.333333L256 21.333333 256 0l512 0 0 21.333333L704 85.333333c81.066667 0 149.333333 68.266667 149.333333 149.333333L853.333333 640C853.333333 789.333333 699.733333 810.666667 512 810.666667zM320 170.666667C285.866667 170.666667 256 200.533333 256 234.666667 256 268.8 285.866667 298.666667 320 298.666667 354.133333 298.666667 384 268.8 384 234.666667 384 200.533333 354.133333 170.666667 320 170.666667zM469.333333 426.666667 256 426.666667 256 640l213.333333 0L469.333333 426.666667zM704 170.666667c-34.133333 0-64 29.866667-64 64 0 34.133333 29.866667 64 64 64 34.133333 0 64-29.866667 64-64C768 200.533333 738.133333 170.666667 704 170.666667zM768 426.666667l-213.333333 0L554.666667 640l213.333333 0L768 426.666667z"  horiz-adv-x="1024" />

    
    <glyph glyph-name="directions" unicode="&#59095;" d="M925.866667 413.866667l-384 384 0 0c-17.066667 17.066667-42.666667 17.066667-59.733333 0l-384-384c-17.066667-17.066667-17.066667-42.666667 0-59.733333l384-384c0 0 0 0 0 0 17.066667-17.066667 42.666667-17.066667 59.733333 0l384 384C942.933333 371.2 942.933333 396.8 925.866667 413.866667zM597.333333 277.333333 597.333333 384l-170.666667 0 0-128L341.333333 256l0 170.666667c0 25.6 17.066667 42.666667 42.666667 42.666667l213.333333 0L597.333333 576l149.333333-149.333333L597.333333 277.333333z"  horiz-adv-x="1024" />

    
    <glyph glyph-name="directionswalk" unicode="&#59096;" d="M597.333333 733.866667c42.666667 0 76.8 34.133333 76.8 76.8 0 42.666667-34.133333 76.8-76.8 76.8-42.666667 0-76.8-34.133333-76.8-76.8C520.533333 768 554.666667 733.866667 597.333333 733.866667zM601.6 469.333333 810.666667 469.333333 810.666667 546.133333l-153.6 0-85.333333 140.8C558.933333 708.266667 533.333333 725.333333 507.733333 725.333333c-8.533333 0-12.8 0-21.333333-4.266667L256 648.533333 256 426.666667l76.8 0L332.8 584.533333l89.6 29.866667L256-42.666667l76.8 0 123.733333 345.6L554.666667 170.666667l0-213.333333 76.8 0 0 273.066667-106.666667 192L554.666667 546.133333 601.6 469.333333z"  horiz-adv-x="1024" />

    
    <glyph glyph-name="discfull" unicode="&#59097;" d="M853.333333 213.333333l85.333333 0 0 85.333333-85.333333 0L853.333333 213.333333zM853.333333 597.333333l0-213.333333 85.333333 0L938.666667 597.333333 853.333333 597.333333zM426.666667 725.333333c-187.733333 0-341.333333-153.6-341.333333-341.333333 0-187.733333 153.6-341.333333 341.333333-341.333333s341.333333 153.6 341.333333 341.333333C768 571.733333 614.4 725.333333 426.666667 725.333333zM426.666667 298.666667c-46.933333 0-85.333333 38.4-85.333333 85.333333s38.4 85.333333 85.333333 85.333333c46.933333 0 85.333333-38.4 85.333333-85.333333S473.6 298.666667 426.666667 298.666667z"  horiz-adv-x="1024" />

    
    <glyph glyph-name="donotdisturb" unicode="&#59098;" d="M512 810.666667C277.333333 810.666667 85.333333 618.666667 85.333333 384s192-426.666667 426.666667-426.666667c234.666667 0 426.666667 192 426.666667 426.666667S746.666667 810.666667 512 810.666667zM170.666667 384c0 187.733333 153.6 341.333333 341.333333 341.333333 76.8 0 149.333333-25.6 209.066667-72.533333L243.2 174.933333C196.266667 234.666667 170.666667 307.2 170.666667 384zM512 42.666667c-76.8 0-149.333333 25.6-209.066667 72.533333L780.8 593.066667C827.733333 533.333333 853.333333 460.8 853.333333 384 853.333333 196.266667 699.733333 42.666667 512 42.666667z"  horiz-adv-x="1024" />

    
    <glyph glyph-name="dock" unicode="&#59099;" d="M341.333333-85.333333l341.333333 0 0 85.333333L341.333333 0 341.333333-85.333333zM682.666667 853.333333 341.333333 853.333333C294.4 853.333333 256 814.933333 256 768l0-597.333333c0-46.933333 38.4-85.333333 85.333333-85.333333l341.333333 0c46.933333 0 85.333333 38.4 85.333333 85.333333L768 768C768 814.933333 729.6 853.333333 682.666667 853.333333zM682.666667 256 341.333333 256 341.333333 682.666667l341.333333 0L682.666667 256z"  horiz-adv-x="1024" />

    
    <glyph glyph-name="domain" unicode="&#59100;" d="M512 597.333333 512 768 85.333333 768l0-768 853.333333 0L938.666667 597.333333 512 597.333333zM256 85.333333 170.666667 85.333333l0 85.333333 85.333333 0L256 85.333333zM256 256 170.666667 256l0 85.333333 85.333333 0L256 256zM256 426.666667 170.666667 426.666667 170.666667 512l85.333333 0L256 426.666667zM256 597.333333 170.666667 597.333333 170.666667 682.666667l85.333333 0L256 597.333333zM426.666667 85.333333 341.333333 85.333333l0 85.333333 85.333333 0L426.666667 85.333333zM426.666667 256 341.333333 256l0 85.333333 85.333333 0L426.666667 256zM426.666667 426.666667 341.333333 426.666667 341.333333 512l85.333333 0L426.666667 426.666667zM426.666667 597.333333 341.333333 597.333333 341.333333 682.666667l85.333333 0L426.666667 597.333333zM853.333333 85.333333l-341.333333 0 0 85.333333 85.333333 0 0 85.333333-85.333333 0 0 85.333333 85.333333 0 0 85.333333-85.333333 0L512 512l341.333333 0L853.333333 85.333333zM768 426.666667l-85.333333 0 0-85.333333 85.333333 0L768 426.666667zM768 256l-85.333333 0 0-85.333333 85.333333 0L768 256z"  horiz-adv-x="1024" />

    
    <glyph glyph-name="doneall" unicode="&#59101;" d="M768 597.333333l-59.733333 59.733333-268.8-268.8 59.733333-59.733333L768 597.333333zM947.2 657.066667 499.2 204.8 320 384l-59.733333-59.733333 238.933333-238.933333 512 512L947.2 657.066667zM17.066667 324.266667 256 85.333333l59.733333 59.733333L76.8 384 17.066667 324.266667z"  horiz-adv-x="1024" />

    
    <glyph glyph-name="done" unicode="&#59102;" d="M384 204.8 204.8 384 145.066667 324.266667 384 85.333333 896 597.333333 836.266667 657.066667Z"  horiz-adv-x="1024" />

    
    <glyph glyph-name="drafts" unicode="&#59103;" d="M938.666667 554.666667c0 29.866667-17.066667 55.466667-38.4 72.533333L512 853.333333 123.733333 627.2C102.4 610.133333 85.333333 584.533333 85.333333 554.666667l0-426.666667c0-46.933333 38.4-85.333333 85.333333-85.333333l682.666667 0c46.933333 0 85.333333 38.4 85.333333 85.333333L938.666667 554.666667zM512 341.333333 157.866667 563.2 512 768l354.133333-204.8L512 341.333333z"  horiz-adv-x="1024" />

    
    <glyph glyph-name="drivedocument" unicode="&#59104;" d="M810.666667 768 213.333333 768C166.4 768 128 729.6 128 682.666667l0-597.333333c0-46.933333 38.4-85.333333 85.333333-85.333333l597.333333 0c46.933333 0 85.333333 38.4 85.333333 85.333333L896 682.666667C896 729.6 857.6 768 810.666667 768zM725.333333 512 298.666667 512 298.666667 597.333333l426.666667 0L725.333333 512zM725.333333 341.333333 298.666667 341.333333l0 85.333333 426.666667 0L725.333333 341.333333zM597.333333 170.666667 298.666667 170.666667l0 85.333333 298.666667 0L597.333333 170.666667z"  horiz-adv-x="1024" />

    
    <glyph glyph-name="drivedrawing" unicode="&#59105;" d="M810.666667 768 213.333333 768C166.4 768 128 729.6 128 682.666667l0-597.333333c0-46.933333 38.4-85.333333 85.333333-85.333333l597.333333 0c46.933333 0 85.333333 38.4 85.333333 85.333333L896 682.666667C896 729.6 857.6 768 810.666667 768zM768 128l-256 0 0 247.466667c-29.866667-25.6-64-42.666667-106.666667-42.666667-85.333333 0-157.866667 72.533333-157.866667 157.866667s72.533333 157.866667 157.866667 157.866667c85.333333 0 157.866667-72.533333 157.866667-157.866667 0-42.666667-17.066667-76.8-42.666667-106.666667L768 384 768 128z"  horiz-adv-x="1024" />

    
    <glyph glyph-name="driveeta" unicode="&#59106;" d="M806.4 682.666667c-8.533333 25.6-34.133333 42.666667-59.733333 42.666667l-469.333333 0C247.466667 725.333333 226.133333 708.266667 217.6 682.666667L128 426.666667l0-341.333333c0-25.6 17.066667-42.666667 42.666667-42.666667l42.666667 0c25.6 0 42.666667 17.066667 42.666667 42.666667l0 42.666667 512 0 0-42.666667c0-25.6 17.066667-42.666667 42.666667-42.666667l42.666667 0c25.6 0 42.666667 17.066667 42.666667 42.666667l0 341.333333L806.4 682.666667zM277.333333 256C243.2 256 213.333333 285.866667 213.333333 320S243.2 384 277.333333 384C311.466667 384 341.333333 354.133333 341.333333 320S311.466667 256 277.333333 256zM746.666667 256c-34.133333 0-64 29.866667-64 64s29.866667 64 64 64c34.133333 0 64-29.866667 64-64S780.8 256 746.666667 256zM213.333333 469.333333l64 192 469.333333 0L810.666667 469.333333 213.333333 469.333333z"  horiz-adv-x="1024" />

    
    <glyph glyph-name="drivefile" unicode="&#59107;" d="M256 810.666667C209.066667 810.666667 170.666667 772.266667 170.666667 725.333333l0-682.666667c0-46.933333 38.4-85.333333 85.333333-85.333333l512 0c46.933333 0 85.333333 38.4 85.333333 85.333333L853.333333 554.666667l-256 256L256 810.666667zM554.666667 512 554.666667 746.666667 789.333333 512 554.666667 512z"  horiz-adv-x="1024" />

    
    <glyph glyph-name="driveform" unicode="&#59108;" d="M810.666667 768 213.333333 768C166.4 768 128 729.6 128 682.666667l0-597.333333c0-46.933333 38.4-85.333333 85.333333-85.333333l597.333333 0c46.933333 0 85.333333 38.4 85.333333 85.333333L896 682.666667C896 729.6 857.6 768 810.666667 768zM384 170.666667 298.666667 170.666667l0 85.333333 85.333333 0L384 170.666667zM384 341.333333 298.666667 341.333333l0 85.333333 85.333333 0L384 341.333333zM384 512 298.666667 512 298.666667 597.333333l85.333333 0L384 512zM725.333333 170.666667l-298.666667 0 0 85.333333 298.666667 0L725.333333 170.666667zM725.333333 341.333333l-298.666667 0 0 85.333333 298.666667 0L725.333333 341.333333zM725.333333 512l-298.666667 0L426.666667 597.333333l298.666667 0L725.333333 512z"  horiz-adv-x="1024" />

    
    <glyph glyph-name="drivefusiontable" unicode="&#59109;" d="M810.666667 768 213.333333 768C166.4 768 128 729.6 128 682.666667l0-597.333333c0-46.933333 38.4-85.333333 85.333333-85.333333l597.333333 0c46.933333 0 85.333333 38.4 85.333333 85.333333L896 682.666667C896 729.6 857.6 768 810.666667 768zM810.666667 460.8 554.666667 170.666667l-170.666667 170.666667-170.666667-170.666667 0 128 170.666667 170.666667 170.666667-170.666667 256 290.133333L810.666667 460.8z"  horiz-adv-x="1024" />

    
    <glyph glyph-name="driveimage" unicode="&#59110;" d="M896 85.333333 896 682.666667c0 46.933333-38.4 85.333333-85.333333 85.333333L213.333333 768C166.4 768 128 729.6 128 682.666667l0-597.333333c0-46.933333 38.4-85.333333 85.333333-85.333333l597.333333 0C857.6 0 896 38.4 896 85.333333zM362.666667 320l106.666667-128 149.333333 192 192-256L213.333333 128 362.666667 320z"  horiz-adv-x="1024" />

    
    <glyph glyph-name="drivemsexcel" unicode="&#59111;" d="M810.666667 768 213.333333 768C166.4 768 128 729.6 128 682.666667l0-597.333333c0-46.933333 38.4-85.333333 85.333333-85.333333l597.333333 0c46.933333 0 85.333333 38.4 85.333333 85.333333L896 682.666667C896 729.6 857.6 768 810.666667 768zM691.2 170.666667l-85.333333 0L512 332.8 418.133333 170.666667l-85.333333 0 136.533333 213.333333L332.8 597.333333l85.333333 0 93.866667-162.133333L605.866667 597.333333l85.333333 0L554.666667 384 691.2 170.666667z"  horiz-adv-x="1024" />

    
    <glyph glyph-name="drivemspowerpoint" unicode="&#59112;" d="M810.666667 768 213.333333 768C166.4 768 128 729.6 128 682.666667l0-597.333333c0-46.933333 38.4-85.333333 85.333333-85.333333l597.333333 0c46.933333 0 85.333333 38.4 85.333333 85.333333L896 682.666667C896 729.6 857.6 768 810.666667 768zM418.133333 324.266667 418.133333 170.666667 341.333333 170.666667 341.333333 597.333333l183.466667 0c64 0 93.866667-12.8 119.466667-38.4 29.866667-25.6 38.4-59.733333 38.4-98.133333 0-42.666667-12.8-76.8-38.4-98.133333-25.6-21.333333-55.466667-34.133333-119.466667-34.133333L418.133333 328.533333zM418.133333 384 418.133333 537.6l98.133333 0c29.866667 0 51.2-8.533333 64-25.6 12.8-17.066667 21.333333-29.866667 21.333333-51.2 0-25.6-8.533333-38.4-21.333333-55.466667-12.8-12.8-29.866667-21.333333-59.733333-21.333333L418.133333 384z"  horiz-adv-x="1024" />

    
    <glyph glyph-name="drivemsword" unicode="&#59113;" d="M810.666667 768 213.333333 768C166.4 768 128 729.6 128 682.666667l0-597.333333c0-46.933333 38.4-85.333333 85.333333-85.333333l597.333333 0c46.933333 0 85.333333 38.4 85.333333 85.333333L896 682.666667C896 729.6 857.6 768 810.666667 768zM661.333333 170.666667 597.333333 170.666667l-85.333333 320L426.666667 170.666667 362.666667 170.666667 260.266667 597.333333l72.533333 0 64-320 85.333333 320 59.733333 0 85.333333-320L691.2 597.333333l72.533333 0L661.333333 170.666667z"  horiz-adv-x="1024" />

    
    <glyph glyph-name="drivepdf" unicode="&#59114;" d="M482.133333 529.066667 482.133333 529.066667C486.4 529.066667 486.4 529.066667 482.133333 529.066667c4.266667 17.066667 8.533333 25.6 8.533333 38.4l0 8.533333c4.266667 21.333333 4.266667 38.4 0 42.666667 0 0 0 0 0 4.266667l-4.266667 4.266667c0 0 0 0 0 0 0 0 0 0 0 0 0 0 0-4.266667-4.266667-4.266667C473.6 597.333333 473.6 567.466667 482.133333 529.066667 482.133333 529.066667 482.133333 529.066667 482.133333 529.066667zM354.133333 234.666667c-8.533333-4.266667-17.066667-8.533333-21.333333-12.8-29.866667-25.6-51.2-55.466667-55.466667-68.266667 0 0 0 0 0 0 0 0 0 0 0 0 0 0 0 0 0 0C302.933333 157.866667 328.533333 183.466667 354.133333 234.666667 358.4 234.666667 358.4 234.666667 354.133333 234.666667 358.4 234.666667 354.133333 234.666667 354.133333 234.666667zM746.666667 298.666667c-4.266667 4.266667-21.333333 17.066667-81.066667 17.066667-4.266667 0-4.266667 0-8.533333 0 0 0 0 0 0 0 0 0 0 0 0-4.266667 29.866667-12.8 59.733333-21.333333 81.066667-21.333333 4.266667 0 4.266667 0 8.533333 0l0 0c0 0 4.266667 0 4.266667 0 0 0 0 0 0 4.266667 0 0 0 0 0 0C750.933333 294.4 746.666667 294.4 746.666667 298.666667zM810.666667 768 213.333333 768C166.4 768 128 729.6 128 682.666667l0-597.333333c0-46.933333 38.4-85.333333 85.333333-85.333333l597.333333 0c46.933333 0 85.333333 38.4 85.333333 85.333333L896 682.666667C896 729.6 857.6 768 810.666667 768zM763.733333 264.533333C755.2 260.266667 742.4 256 725.333333 256c-34.133333 0-85.333333 8.533333-128 29.866667-72.533333-8.533333-128-17.066667-170.666667-34.133333-4.266667 0-4.266667 0-8.533333-4.266667-51.2-89.6-93.866667-132.266667-128-132.266667-8.533333 0-12.8 0-17.066667 4.266667l-21.333333 12.8 0 4.266667c-4.266667 8.533333-4.266667 12.8-4.266667 21.333333 4.266667 21.333333 29.866667 59.733333 81.066667 89.6 8.533333 4.266667 21.333333 12.8 38.4 21.333333 12.8 21.333333 25.6 46.933333 42.666667 76.8 21.333333 42.666667 34.133333 85.333333 46.933333 123.733333l0 0c-17.066667 51.2-25.6 81.066667-8.533333 140.8 4.266667 17.066667 17.066667 34.133333 34.133333 34.133333l8.533333 0c8.533333 0 17.066667-4.266667 25.6-8.533333 29.866667-29.866667 17.066667-98.133333 0-153.6 0-4.266667 0-4.266667 0-4.266667 17.066667-46.933333 42.666667-85.333333 68.266667-110.933333 12.8-8.533333 21.333333-17.066667 38.4-25.6 21.333333 0 38.4 4.266667 55.466667 4.266667 51.2 0 85.333333-8.533333 98.133333-29.866667 4.266667-8.533333 4.266667-17.066667 4.266667-25.6C776.533333 285.866667 772.266667 273.066667 763.733333 264.533333zM486.4 430.933333c-8.533333-29.866667-25.6-64-42.666667-102.4-8.533333-17.066667-17.066667-29.866667-25.6-46.933333 0 0 4.266667 0 4.266667 0l4.266667 0 0 0c55.466667 21.333333 106.666667 34.133333 140.8 38.4-8.533333 4.266667-12.8 8.533333-17.066667 12.8C529.066667 358.4 503.466667 392.533333 486.4 430.933333z"  horiz-adv-x="1024" />

    
    <glyph glyph-name="drivepresentation" unicode="&#59115;" d="M810.666667 768 213.333333 768C166.4 768 128 729.6 128 682.666667l0-597.333333c0-46.933333 38.4-85.333333 85.333333-85.333333l597.333333 0c46.933333 0 85.333333 38.4 85.333333 85.333333L896 682.666667C896 729.6 857.6 768 810.666667 768zM810.666667 213.333333 213.333333 213.333333 213.333333 554.666667l597.333333 0L810.666667 213.333333z"  horiz-adv-x="1024" />

    
    <glyph glyph-name="drivescript" unicode="&#59116;" d="M810.666667 768 213.333333 768C166.4 768 128 729.6 128 682.666667l0-170.666667 0 0 0-256 0 0 0-170.666667c0-46.933333 38.4-85.333333 85.333333-85.333333l597.333333 0c46.933333 0 85.333333 38.4 85.333333 85.333333L896 682.666667C896 729.6 857.6 768 810.666667 768zM469.333333 170.666667l0 128L213.333333 298.666667l0 170.666667 256 0L469.333333 597.333333l213.333333-213.333333L469.333333 170.666667z"  horiz-adv-x="1024" />

    
    <glyph glyph-name="drivesite" unicode="&#59117;" d="M810.666667 725.333333 213.333333 725.333333C166.4 725.333333 128 686.933333 128 640l0-512c0-46.933333 38.4-85.333333 85.333333-85.333333l597.333333 0c46.933333 0 85.333333 38.4 85.333333 85.333333L896 640C896 686.933333 857.6 725.333333 810.666667 725.333333zM597.333333 128 213.333333 128l0 170.666667 384 0L597.333333 128zM597.333333 341.333333 213.333333 341.333333 213.333333 512l384 0L597.333333 341.333333zM810.666667 128l-170.666667 0L640 512l170.666667 0L810.666667 128z"  horiz-adv-x="1024" />

    
    <glyph glyph-name="drivespreadsheet" unicode="&#59118;" d="M810.666667 768 213.333333 768C166.4 768 128 729.6 128 682.666667l0-128 0 0 0-469.333333c0-46.933333 38.4-85.333333 85.333333-85.333333l597.333333 0c46.933333 0 85.333333 38.4 85.333333 85.333333L896 682.666667C896 729.6 857.6 768 810.666667 768zM810.666667 426.666667l-341.333333 0 0-341.333333L384 85.333333l0 341.333333L213.333333 426.666667 213.333333 512l170.666667 0L384 682.666667l85.333333 0 0-170.666667 341.333333 0L810.666667 426.666667z"  horiz-adv-x="1024" />

    
    <glyph glyph-name="drivevideo" unicode="&#59119;" d="M768 725.333333l85.333333-170.666667-128 0-85.333333 170.666667-85.333333 0 85.333333-170.666667-128 0-85.333333 170.666667L341.333333 725.333333l85.333333-170.666667L298.666667 554.666667 213.333333 725.333333 170.666667 725.333333C123.733333 725.333333 85.333333 686.933333 85.333333 640l0-512c0-46.933333 38.4-85.333333 85.333333-85.333333l682.666667 0c46.933333 0 85.333333 38.4 85.333333 85.333333L938.666667 725.333333 768 725.333333z"  horiz-adv-x="1024" />

    
    <glyph glyph-name="drive" unicode="&#59120;" d="M951.466667 298.666667 657.066667 810.666667 366.933333 810.666667l0 0 294.4-512L951.466667 298.666667zM413.866667 256l-145.066667-256 558.933333 0 145.066667 256L413.866667 256zM328.533333 746.666667 51.2 256l145.066667-256 281.6 490.666667L328.533333 746.666667z"  horiz-adv-x="1024" />

    
    <glyph glyph-name="earth" unicode="&#59121;" d="M512 810.666667C277.333333 810.666667 85.333333 618.666667 85.333333 384s192-426.666667 426.666667-426.666667c234.666667 0 426.666667 192 426.666667 426.666667S746.666667 810.666667 512 810.666667zM512 34.133333c-46.933333 0-93.866667 8.533333-136.533333 25.6-25.6 64-25.6 110.933333 46.933333 89.6 0 0 166.4-64 341.333333-4.266667C704 76.8 614.4 34.133333 512 34.133333zM814.933333 209.066667c-38.4-17.066667-89.6-42.666667-170.666667-42.666667-81.066667 0-149.333333 34.133333-238.933333 59.733333-81.066667 25.6-110.933333 64-162.133333 64-29.866667 0-42.666667-29.866667-51.2-51.2-21.333333 42.666667-34.133333 93.866667-34.133333 145.066667 0 34.133333 4.266667 68.266667 12.8 98.133333 55.466667 68.266667 136.533333 110.933333 256 17.066667 0 0 264.533333-200.533333 418.133333-213.333333C840.533333 260.266667 827.733333 234.666667 814.933333 209.066667zM529.066667 571.733333C409.6 686.933333 311.466667 652.8 268.8 635.733333c29.866667 29.866667 68.266667 55.466667 110.933333 72.533333 119.466667 4.266667 251.733333-17.066667 324.266667-123.733333 0 0 102.4-179.2 140.8-98.133333 8.533333-29.866667 12.8-64 12.8-98.133333 0-12.8 0-25.6 0-38.4C772.266667 358.4 652.8 456.533333 529.066667 571.733333z"  horiz-adv-x="1024" />

    
    <glyph glyph-name="email" unicode="&#59122;" d="M853.333333 725.333333 170.666667 725.333333C123.733333 725.333333 85.333333 686.933333 85.333333 640l0-512c0-46.933333 38.4-85.333333 85.333333-85.333333l682.666667 0c46.933333 0 85.333333 38.4 85.333333 85.333333L938.666667 640C938.666667 686.933333 900.266667 725.333333 853.333333 725.333333zM853.333333 554.666667l-341.333333-213.333333L170.666667 554.666667 170.666667 640l341.333333-213.333333 341.333333 213.333333L853.333333 554.666667z"  horiz-adv-x="1024" />

    
    <glyph glyph-name="error" unicode="&#59123;" d="M512 810.666667C277.333333 810.666667 85.333333 618.666667 85.333333 384s192-426.666667 426.666667-426.666667c234.666667 0 426.666667 192 426.666667 426.666667S746.666667 810.666667 512 810.666667zM554.666667 170.666667l-85.333333 0 0 85.333333 85.333333 0L554.666667 170.666667zM554.666667 341.333333l-85.333333 0L469.333333 597.333333l85.333333 0L554.666667 341.333333z"  horiz-adv-x="1024" />

    
    <glyph glyph-name="event" unicode="&#59124;" d="M725.333333 384l-213.333333 0 0-213.333333 213.333333 0L725.333333 384zM682.666667 853.333333l0-85.333333L341.333333 768 341.333333 853.333333 256 853.333333l0-85.333333L213.333333 768C166.4 768 128 729.6 128 682.666667l0-597.333333c0-46.933333 38.4-85.333333 85.333333-85.333333l597.333333 0c46.933333 0 85.333333 38.4 85.333333 85.333333L896 682.666667c0 46.933333-38.4 85.333333-85.333333 85.333333l-42.666667 0L768 853.333333 682.666667 853.333333zM810.666667 85.333333 213.333333 85.333333 213.333333 554.666667l597.333333 0L810.666667 85.333333z"  horiz-adv-x="1024" />

    
    <glyph glyph-name="exittoapp" unicode="&#59125;" d="M430.933333 230.4l59.733333-59.733333 213.333333 213.333333-213.333333 213.333333-59.733333-59.733333 110.933333-110.933333L128 426.666667l0-85.333333 413.866667 0L430.933333 230.4zM810.666667 768 213.333333 768C166.4 768 128 729.6 128 682.666667l0-170.666667 85.333333 0L213.333333 682.666667l597.333333 0 0-597.333333L213.333333 85.333333l0 170.666667L128 256l0-170.666667c0-46.933333 38.4-85.333333 85.333333-85.333333l597.333333 0c46.933333 0 85.333333 38.4 85.333333 85.333333L896 682.666667C896 729.6 857.6 768 810.666667 768z"  horiz-adv-x="1024" />

    
    <glyph glyph-name="expandless" unicode="&#59126;" d="M512 554.666667 256 298.666667 315.733333 238.933333 512 435.2 708.266667 238.933333 768 298.666667Z"  horiz-adv-x="1024" />

    
    <glyph glyph-name="expandmore" unicode="&#59127;" d="M708.266667 529.066667 512 332.8 315.733333 529.066667 256 469.333333 512 213.333333 768 469.333333Z"  horiz-adv-x="1024" />

    
    <glyph glyph-name="explore" unicode="&#59128;" d="M512 430.933333c-25.6 0-46.933333-21.333333-46.933333-46.933333s21.333333-46.933333 46.933333-46.933333c25.6 0 46.933333 21.333333 46.933333 46.933333S537.6 430.933333 512 430.933333zM512 810.666667C277.333333 810.666667 85.333333 618.666667 85.333333 384c0-234.666667 192-426.666667 426.666667-426.666667 234.666667 0 426.666667 192 426.666667 426.666667C938.666667 618.666667 746.666667 810.666667 512 810.666667zM605.866667 290.133333 256 128l162.133333 349.866667L768 640 605.866667 290.133333z"  horiz-adv-x="1024" />

    
    <glyph glyph-name="extension" unicode="&#59129;" d="M874.666667 426.666667 810.666667 426.666667 810.666667 597.333333c0 46.933333-38.4 85.333333-85.333333 85.333333l-170.666667 0L554.666667 746.666667C554.666667 806.4 507.733333 853.333333 448 853.333333 388.266667 853.333333 341.333333 806.4 341.333333 746.666667L341.333333 682.666667 170.666667 682.666667C123.733333 682.666667 85.333333 644.266667 85.333333 597.333333l0-162.133333 64 0c64 0 115.2-51.2 115.2-115.2S213.333333 204.8 149.333333 204.8L85.333333 204.8 85.333333 42.666667c0-46.933333 38.4-85.333333 85.333333-85.333333l162.133333 0 0 64c0 64 51.2 115.2 115.2 115.2 64 0 115.2-51.2 115.2-115.2L563.2-42.666667 725.333333-42.666667c46.933333 0 85.333333 38.4 85.333333 85.333333l0 170.666667 64 0c59.733333 0 106.666667 46.933333 106.666667 106.666667S934.4 426.666667 874.666667 426.666667z"  horiz-adv-x="1024" />

    
    <glyph glyph-name="fastforward" unicode="&#59130;" d="M170.666667 128l362.666667 256L170.666667 640 170.666667 128zM554.666667 640l0-512 362.666667 256L554.666667 640z"  horiz-adv-x="1024" />

    
    <glyph glyph-name="fastrewind" unicode="&#59131;" d="M469.333333 128 469.333333 640l-362.666667-256L469.333333 128zM490.666667 384l362.666667-256L853.333333 640 490.666667 384z"  horiz-adv-x="1024" />

    
    <glyph glyph-name="favoriteoutline" unicode="&#59132;" d="M704 768c-72.533333 0-145.066667-34.133333-192-89.6C465.066667 733.866667 392.533333 768 320 768 187.733333 768 85.333333 665.6 85.333333 533.333333c0-162.133333 145.066667-294.4 366.933333-490.666667l59.733333-55.466667 59.733333 55.466667c217.6 200.533333 366.933333 332.8 366.933333 490.666667C938.666667 665.6 836.266667 768 704 768zM516.266667 102.4 512 102.4l-4.266667 4.266667C302.933333 290.133333 170.666667 409.6 170.666667 533.333333 170.666667 618.666667 234.666667 682.666667 320 682.666667c64 0 128-42.666667 153.6-102.4l81.066667 0C576 640 640 682.666667 704 682.666667c85.333333 0 149.333333-64 149.333333-149.333333C853.333333 409.6 721.066667 290.133333 516.266667 102.4z"  horiz-adv-x="1024" />

    
    <glyph glyph-name="favorite" unicode="&#59133;" d="M512-17.066667 452.266667 42.666667C230.4 238.933333 85.333333 371.2 85.333333 533.333333 85.333333 665.6 187.733333 768 320 768c72.533333 0 145.066667-34.133333 192-89.6C558.933333 733.866667 631.466667 768 704 768 836.266667 768 938.666667 665.6 938.666667 533.333333c0-162.133333-145.066667-294.4-366.933333-490.666667L512-17.066667z"  horiz-adv-x="1024" />

    
    <glyph glyph-name="filedownload" unicode="&#59134;" d="M810.666667 512l-170.666667 0L640 768 384 768l0-256L213.333333 512l298.666667-298.666667L810.666667 512zM213.333333 128l0-85.333333 597.333333 0 0 85.333333L213.333333 128z"  horiz-adv-x="1024" />

    
    <glyph glyph-name="fileupload" unicode="&#59135;" d="M384 213.333333 640 213.333333 640 469.333333 810.666667 469.333333 512 768 213.333333 469.333333 384 469.333333ZM213.333333 128l597.333333 0 0-85.333333-597.333333 0 0 85.333333Z"  horiz-adv-x="1024" />

    
    <glyph glyph-name="filter" unicode="&#59136;" d="M426.666667 128l170.666667 0 0 85.333333-170.666667 0L426.666667 128zM128 640l0-85.333333 768 0L896 640 128 640zM256 341.333333l512 0 0 85.333333L256 426.666667 256 341.333333z"  horiz-adv-x="1024" />

    
    <glyph glyph-name="flag" unicode="&#59137;" d="M614.4 640 597.333333 725.333333 213.333333 725.333333 213.333333 0 298.666667 0 298.666667 298.666667 537.6 298.666667 554.666667 213.333333 853.333333 213.333333 853.333333 640Z"  horiz-adv-x="1024" />

    
    <glyph glyph-name="flashauto" unicode="&#59138;" d="M128 810.666667l0-512 128 0 0-384 298.666667 512L384 426.666667l170.666667 384L128 810.666667zM810.666667 810.666667l-85.333333 0-136.533333-384 81.066667 0 29.866667 85.333333 136.533333 0 29.866667-85.333333 81.066667 0L810.666667 810.666667zM721.066667 571.733333 768 725.333333l46.933333-153.6L721.066667 571.733333z"  horiz-adv-x="1024" />

    
    <glyph glyph-name="flashoff" unicode="&#59139;" d="M140.8 768 85.333333 712.533333l213.333333-213.333333L298.666667 341.333333l128 0 0-384 153.6 260.266667 174.933333-174.933333 55.466667 55.466667L140.8 768zM725.333333 469.333333l-170.666667 0 170.666667 341.333333L298.666667 810.666667l0-93.866667 362.666667-362.666667L725.333333 469.333333z"  horiz-adv-x="1024" />

    
    <glyph glyph-name="flashon" unicode="&#59140;" d="M298.666667 810.666667 298.666667 341.333333 426.666667 341.333333 426.666667-42.666667 725.333333 469.333333 554.666667 469.333333 725.333333 810.666667Z"  horiz-adv-x="1024" />

    
    <glyph glyph-name="flights" unicode="&#59141;" d="M640 460.8M938.666667 405.333333c0 34.133333-29.866667 64-64 64L640 469.333333l-213.333333 341.333333L341.333333 810.666667l106.666667-341.333333L213.333333 469.333333 149.333333 554.666667 85.333333 554.666667l42.666667-149.333333L85.333333 256l64 0L213.333333 341.333333l234.666667 0L341.333333 0l85.333333 0 213.333333 341.333333 234.666667 0C908.8 341.333333 938.666667 371.2 938.666667 405.333333z"  horiz-adv-x="1024" />

    
    <glyph glyph-name="fliptoback" unicode="&#59142;" d="M384 597.333333 298.666667 597.333333l0-85.333333 85.333333 0L384 597.333333zM384 426.666667 298.666667 426.666667l0-85.333333 85.333333 0L384 426.666667zM384 768C337.066667 768 298.666667 729.6 298.666667 682.666667l85.333333 0L384 768zM554.666667 256l-85.333333 0 0-85.333333 85.333333 0L554.666667 256zM810.666667 768l0-85.333333 85.333333 0C896 729.6 857.6 768 810.666667 768zM554.666667 768l-85.333333 0 0-85.333333 85.333333 0L554.666667 768zM384 170.666667l0 85.333333L298.666667 256C298.666667 209.066667 337.066667 170.666667 384 170.666667zM810.666667 341.333333l85.333333 0 0 85.333333-85.333333 0L810.666667 341.333333zM810.666667 512l85.333333 0L896 597.333333l-85.333333 0L810.666667 512zM810.666667 170.666667c46.933333 0 85.333333 38.4 85.333333 85.333333l-85.333333 0L810.666667 170.666667zM213.333333 597.333333 128 597.333333l0-85.333333 0 0 0-426.666667c0-46.933333 38.4-85.333333 85.333333-85.333333l512 0 0 85.333333L213.333333 85.333333 213.333333 597.333333zM640 682.666667l85.333333 0L725.333333 768l-85.333333 0L640 682.666667zM640 170.666667l85.333333 0 0 85.333333-85.333333 0L640 170.666667z"  horiz-adv-x="1024" />

    
    <glyph glyph-name="fliptofront" unicode="&#59143;" d="M128 341.333333l85.333333 0 0 85.333333L128 426.666667 128 341.333333zM128 170.666667l85.333333 0 0 85.333333L128 256 128 170.666667zM213.333333 0l0 85.333333L128 85.333333C128 38.4 166.4 0 213.333333 0zM128 512l85.333333 0L213.333333 597.333333 128 597.333333 128 512zM640 0l85.333333 0 0 85.333333-85.333333 0L640 0zM810.666667 768 384 768C337.066667 768 298.666667 729.6 298.666667 682.666667l0-85.333333 0 0 0-85.333333 0-256c0-46.933333 38.4-85.333333 85.333333-85.333333l213.333333 0 170.666667 0 42.666667 0c46.933333 0 85.333333 38.4 85.333333 85.333333L896 682.666667C896 729.6 857.6 768 810.666667 768zM810.666667 256 384 256 384 682.666667l426.666667 0L810.666667 256zM469.333333 0l85.333333 0 0 85.333333-85.333333 0L469.333333 0zM298.666667 0l85.333333 0 0 85.333333L298.666667 85.333333 298.666667 0z"  horiz-adv-x="1024" />

    
    <glyph glyph-name="foldermydrive" unicode="&#59144;" d="M853.333333 640l-341.333333 0-85.333333 85.333333L170.666667 725.333333C123.733333 725.333333 85.333333 686.933333 85.333333 640l0-512c0-46.933333 38.4-85.333333 85.333333-85.333333l682.666667 0c46.933333 0 85.333333 38.4 85.333333 85.333333L938.666667 554.666667C938.666667 601.6 900.266667 640 853.333333 640zM499.2 170.666667l-55.466667 89.6 119.466667 213.333333 64-115.2L524.8 170.666667 499.2 170.666667zM780.8 170.666667l-234.666667 0 59.733333 106.666667 217.6 0 12.8-21.333333L780.8 170.666667zM588.8 512l102.4 0 119.466667-213.333333L682.666667 298.666667l-110.933333 192L588.8 512z"  horiz-adv-x="1024" />

    
    <glyph glyph-name="foldershared" unicode="&#59145;" d="M853.333333 640l-341.333333 0-85.333333 85.333333L170.666667 725.333333C123.733333 725.333333 85.333333 686.933333 85.333333 640l0-512c0-46.933333 38.4-85.333333 85.333333-85.333333l682.666667 0c46.933333 0 85.333333 38.4 85.333333 85.333333L938.666667 554.666667C938.666667 601.6 900.266667 640 853.333333 640zM640 512c46.933333 0 85.333333-38.4 85.333333-85.333333 0-46.933333-38.4-85.333333-85.333333-85.333333-46.933333 0-85.333333 38.4-85.333333 85.333333C554.666667 473.6 593.066667 512 640 512zM810.666667 170.666667l-341.333333 0 0 42.666667c0 55.466667 115.2 85.333333 170.666667 85.333333 55.466667 0 170.666667-29.866667 170.666667-85.333333L810.666667 170.666667z"  horiz-adv-x="1024" />

    
    <glyph glyph-name="folder" unicode="&#59146;" d="M426.666667 725.333333 170.666667 725.333333C123.733333 725.333333 85.333333 686.933333 85.333333 640l0-512c0-46.933333 38.4-85.333333 85.333333-85.333333l682.666667 0c46.933333 0 85.333333 38.4 85.333333 85.333333L938.666667 554.666667c0 46.933333-38.4 85.333333-85.333333 85.333333l-341.333333 0L426.666667 725.333333z"  horiz-adv-x="1024" />

    
    <glyph glyph-name="forum" unicode="&#59147;" d="M896 640l-85.333333 0 0-384L256 256l0-85.333333c0-25.6 17.066667-42.666667 42.666667-42.666667l469.333333 0 170.666667-170.666667L938.666667 597.333333C938.666667 622.933333 921.6 640 896 640zM725.333333 384 725.333333 768c0 25.6-17.066667 42.666667-42.666667 42.666667L128 810.666667C102.4 810.666667 85.333333 793.6 85.333333 768l0-597.333333 170.666667 170.666667 426.666667 0C708.266667 341.333333 725.333333 358.4 725.333333 384z"  horiz-adv-x="1024" />

    
    <glyph glyph-name="forward" unicode="&#59148;" d="M512 554.666667 512 725.333333 853.333333 384 512 42.666667 512 213.333333 170.666667 213.333333 170.666667 554.666667Z"  horiz-adv-x="1024" />

    
    <glyph glyph-name="fullscreenexit" unicode="&#59149;" d="M213.333333 213.333333l128 0 0-128 85.333333 0 0 213.333333L213.333333 298.666667 213.333333 213.333333zM341.333333 554.666667 213.333333 554.666667l0-85.333333 213.333333 0L426.666667 682.666667 341.333333 682.666667 341.333333 554.666667zM597.333333 85.333333l85.333333 0 0 128 128 0 0 85.333333-213.333333 0L597.333333 85.333333zM682.666667 554.666667 682.666667 682.666667l-85.333333 0 0-213.333333 213.333333 0L810.666667 554.666667 682.666667 554.666667z"  horiz-adv-x="1024" />

    
    <glyph glyph-name="fullscreen" unicode="&#59150;" d="M298.666667 298.666667 213.333333 298.666667l0-213.333333 213.333333 0 0 85.333333L298.666667 170.666667 298.666667 298.666667zM213.333333 469.333333l85.333333 0L298.666667 597.333333l128 0L426.666667 682.666667 213.333333 682.666667 213.333333 469.333333zM725.333333 170.666667l-128 0 0-85.333333 213.333333 0 0 213.333333-85.333333 0L725.333333 170.666667zM597.333333 682.666667l0-85.333333 128 0 0-128 85.333333 0L810.666667 682.666667 597.333333 682.666667z"  horiz-adv-x="1024" />

    
    <glyph glyph-name="gamepad" unicode="&#59151;" d="M640 576 640 810.666667 384 810.666667l0-234.666667 128-128L640 576zM320 512 85.333333 512l0-256 234.666667 0 128 128L320 512zM384 192 384-42.666667l256 0 0 234.666667-128 128L384 192zM704 512l-128-128 128-128L938.666667 256 938.666667 512 704 512z"  horiz-adv-x="1024" />

    
    </font>
</defs>
</svg>
